<svg width="34" height="34" viewBox="0 0 34 34" fill="none" xmlns="http://www.w3.org/2000/svg">
<circle cx="17" cy="17.0029" r="16" stroke="#94A3B8" stroke-dasharray="2 2"/>
<path d="M23.0287 18.0273L17.2811 8.26933C17.2533 8.22115 17.213 8.18101 17.1643 8.15297C17.1156 8.12493 17.0602 8.10998 17.0037 8.10963C16.9472 8.10927 16.8916 8.12353 16.8426 8.15095C16.7935 8.17838 16.7527 8.21801 16.7243 8.26584L15.0029 11.1897C14.9466 11.2855 14.9169 11.394 14.9169 11.5045C14.9169 11.6151 14.9466 11.7236 15.0029 11.8193L18.7507 18.1851C18.8071 18.2809 18.8883 18.3605 18.9861 18.4157C19.0838 18.471 19.1947 18.5 19.3076 18.4999H22.7502C22.8066 18.4998 22.8619 18.4851 22.9107 18.4574C22.9595 18.4297 23 18.39 23.0282 18.3421C23.0563 18.2943 23.0712 18.24 23.0713 18.1848C23.0714 18.1295 23.0567 18.0752 23.0287 18.0273Z" fill="#363FF9"/>
<path d="M7.96284 23.1272L13.7104 13.3692C13.7386 13.3214 13.7791 13.2817 13.8279 13.2541C13.8767 13.2265 13.932 13.212 13.9884 13.212C14.0447 13.212 14.1001 13.2265 14.1489 13.2541C14.1976 13.2817 14.2382 13.3214 14.2664 13.3692L15.9886 16.2905C16.045 16.3864 16.0746 16.4951 16.0746 16.6057C16.0746 16.7164 16.045 16.8251 15.9886 16.921L12.2408 23.2868C12.1846 23.3826 12.1036 23.4621 12.006 23.5174C11.9083 23.5727 11.7976 23.6017 11.6848 23.6016H8.24128C8.18455 23.6018 8.12876 23.5874 8.07958 23.5597C8.03041 23.532 7.9896 23.492 7.96131 23.4438C7.93302 23.3956 7.91825 23.3409 7.91852 23.2853C7.91879 23.2297 7.93408 23.1751 7.96284 23.1272Z" fill="#363FF9"/>
<path d="M14.2655 23.5995H25.7606C25.817 23.5994 25.8724 23.5848 25.9212 23.5571C25.97 23.5294 26.0105 23.4896 26.0387 23.4417C26.0668 23.3938 26.0816 23.3395 26.0815 23.2842C26.0814 23.2289 26.0665 23.1747 26.0382 23.1268L24.3186 20.2038C24.2622 20.108 24.181 20.0285 24.0833 19.9732C23.9855 19.9179 23.8746 19.8889 23.7618 19.889H16.2662C16.1534 19.8889 16.0425 19.9179 15.9447 19.9732C15.8469 20.0285 15.7658 20.108 15.7093 20.2038L13.988 23.1268C13.9597 23.1747 13.9448 23.2289 13.9447 23.2842C13.9446 23.3395 13.9594 23.3938 13.9875 23.4417C14.0157 23.4896 14.0562 23.5294 14.105 23.5571C14.1538 23.5848 14.2092 23.5994 14.2655 23.5995Z" fill="#363FF9"/>
</svg>
