<svg width="20" height="20" viewBox="0 0 20 20" fill="none" xmlns="http://www.w3.org/2000/svg">
<path d="M10.0312 0C10.297 0 10.563 0.0699735 10.7998 0.205078L18.2354 4.47168C18.7085 4.74619 18.9999 5.24521 19 5.78613L18.9707 14.2725C18.9707 14.813 18.6758 15.3137 18.1982 15.584L10.7373 19.7998C10.5004 19.9349 10.2346 20 9.96875 20C9.70293 20 9.43707 19.9301 9.2002 19.7949L1.76465 15.5293C1.29153 15.2548 1.00013 14.7557 1 14.2148L1.0293 5.72852C1.0293 5.18757 1.32432 4.68779 1.80176 4.41699L9.2627 0.201172C9.49952 0.0660564 9.76549 2.84419e-05 10.0312 0ZM10.0273 1.24121C9.98151 1.24121 9.93114 1.25395 9.88965 1.27441L2.42578 5.49512C2.33846 5.54413 2.28418 5.63392 2.28418 5.73242L2.25488 14.2188C2.25074 14.3166 2.3054 14.4071 2.39258 14.4561L9.82715 18.7207C9.87298 18.745 9.91858 18.7578 9.96875 18.7578C10.0189 18.7578 10.0689 18.7454 10.1104 18.7207L17.5713 14.5049C17.6584 14.4559 17.7118 14.3659 17.7119 14.2676L17.7412 5.78125C17.7455 5.68334 17.6916 5.593 17.6045 5.54395L10.168 1.27832C10.1223 1.2542 10.0768 1.24125 10.0273 1.24121ZM11.5391 4.62598C11.6051 4.62601 11.655 4.69156 11.6299 4.75293L8.12402 14.2305C8.09499 14.3083 8.02425 14.3574 7.94141 14.3574H6.85352C6.78754 14.3574 6.73696 14.2918 6.76172 14.2305L10.2676 4.75293C10.2965 4.67503 10.3674 4.62616 10.4502 4.62598H11.5391ZM9.63281 4.62598C9.70304 4.6262 9.74868 4.69165 9.72363 4.75293L6.22168 14.2266C6.19272 14.3044 6.12188 14.3534 6.03906 14.3535H4.9502C4.88427 14.3533 4.83444 14.2878 4.85938 14.2266L8.36133 4.75293C8.39026 4.67494 8.46103 4.62603 8.54395 4.62598H9.63281ZM10.8623 8.29688C10.8914 8.2111 11.0158 8.21109 11.0449 8.29688L13.2383 14.2266C13.2632 14.2879 13.213 14.3535 13.1465 14.3535H12.0586C11.9757 14.3535 11.905 14.3002 11.876 14.2266L10.2969 9.96094C10.2805 9.91954 10.2805 9.87003 10.2969 9.8291L10.8623 8.29688ZM11.8135 5.71973C11.8425 5.63377 11.967 5.63383 11.9961 5.71973L15.1406 14.2266C15.1656 14.2879 15.1201 14.3577 15.0498 14.3535H13.9609C13.8782 14.3534 13.8073 14.3002 13.7783 14.2266L11.249 7.38379C11.2326 7.34239 11.2326 7.29288 11.249 7.25195L11.8135 5.71973Z" fill="#1B4ADD"/>
</svg>
