<svg width="20" height="20" viewBox="0 0 20 20" fill="none" xmlns="http://www.w3.org/2000/svg">
<g clip-path="url(#clip0_27140_253)">
<path d="M9.99966 1.24052C10.0494 1.24052 10.0953 1.25288 10.1411 1.27713L17.603 5.51886C17.6904 5.56784 17.7444 5.65818 17.7444 5.75613V14.2391C17.7444 14.3375 17.6904 14.4274 17.603 14.4764L10.1411 18.7219C10.0996 18.7466 10.0499 18.7585 9.99966 18.7585C9.94946 18.7585 9.90407 18.7462 9.85821 18.7219L2.40069 14.4811C2.31331 14.4322 2.25924 14.3418 2.25924 14.2439V5.7566C2.25924 5.65818 2.31331 5.56831 2.40069 5.51934L9.85821 1.27761C9.90407 1.25288 9.94946 1.241 9.99966 1.241M9.99966 0.000475477C9.73365 0.000475477 9.46764 0.0698952 9.23059 0.205406L1.76873 4.44619C1.29464 4.71626 0.999664 5.21599 0.999664 5.7566V14.2396C0.999664 14.7802 1.29464 15.2795 1.76873 15.5538L9.23059 19.7955C9.46764 19.9306 9.73365 20.0005 9.99966 20.0005C10.2657 20.0005 10.5317 19.9311 10.7687 19.7955L18.2306 15.5538C18.7085 15.2837 18.9997 14.784 18.9997 14.2396V5.7566C18.9997 5.21599 18.7047 4.71673 18.2306 4.44238L10.7687 0.200651C10.5317 0.0656159 10.2657 0 9.99966 0V0.000475477Z" fill="#FF7700"/>
<path d="M8.09602 5.65393H7.12322C7.04839 5.65393 6.98611 5.6991 6.96101 5.76852L3.82245 14.2311C3.80169 14.2886 3.84321 14.3457 3.90549 14.3457H4.87829C4.95312 14.3457 5.0154 14.3005 5.0405 14.2311L8.17472 5.76424C8.19982 5.71099 8.1583 5.65393 8.09554 5.65393H8.09602Z" fill="#FF7700"/>
<path d="M9.36 8.9376C9.33103 8.8639 9.22289 8.8639 9.19779 8.9376L8.69038 10.3051C8.67783 10.3417 8.67783 10.383 8.69038 10.4239L10.104 14.2358C10.1291 14.3053 10.1952 14.3504 10.2662 14.3504H11.239C11.3013 14.3504 11.3428 14.2929 11.322 14.2358L9.36 8.93807V8.9376Z" fill="#FF7700"/>
<path d="M9.80075 5.65393H8.82795C8.75312 5.65393 8.69084 5.6991 8.66574 5.76852L5.53152 14.2311C5.51076 14.2886 5.55228 14.3457 5.61456 14.3457H6.58737C6.6622 14.3457 6.72447 14.3005 6.74958 14.2311L9.88379 5.76424C9.90455 5.71099 9.86303 5.65393 9.80075 5.65393Z" fill="#FF7700"/>
<path d="M10.2121 6.63254C10.1831 6.55885 10.0749 6.55885 10.0498 6.63254L9.54292 8.00002C9.53037 8.03663 9.53037 8.078 9.54292 8.11889L11.8086 14.2316C11.8337 14.301 11.8999 14.3462 11.9708 14.3462H12.9436C13.0059 14.3462 13.0474 14.2887 13.0267 14.2316L10.2125 6.63302L10.2121 6.63254Z" fill="#FF7700"/>
<path d="M16.0943 5.65393H15.1215C15.0466 5.65393 14.9844 5.6991 14.9593 5.76852L12.6897 11.8813C12.6772 11.9179 12.6772 11.9592 12.6897 12.0001L13.1971 13.3676C13.2261 13.4413 13.3342 13.4413 13.3593 13.3676L16.1735 5.769C16.1942 5.71146 16.1527 5.65441 16.0943 5.65441V5.65393Z" fill="#FF7700"/>
<path d="M12.3445 11.0625C12.3735 11.1362 12.4816 11.1362 12.5067 11.0625L14.4688 5.76852C14.4895 5.71099 14.448 5.65393 14.3857 5.65393H13.4129C13.3381 5.65393 13.2758 5.6991 13.2507 5.76852L11.8371 9.58042C11.8246 9.61703 11.8246 9.6584 11.8371 9.69929L12.344 11.0625H12.3445Z" fill="#FF7700"/>
</g>
<defs>
<clipPath id="clip0_27140_253">
<rect width="20" height="20" fill="white" transform="translate(0.00149536)"/>
</clipPath>
</defs>
</svg>
