<svg width="20" height="20" viewBox="0 0 20 20" fill="none" xmlns="http://www.w3.org/2000/svg">
<g clip-path="url(#clip0_30489_48378)">
<path d="M10 19.9999C15.5228 19.9999 20 15.5228 20 9.99994C20 4.47709 15.5228 -6.10352e-05 10 -6.10352e-05C4.47715 -6.10352e-05 0 4.47709 0 9.99994C0 15.5228 4.47715 19.9999 10 19.9999Z" fill="#412C5C"/>
<path d="M4.20001 15.3993C4.29732 12.4616 4.7954 9.72002 5.62809 7.5881C6.68232 4.88733 8.20886 3.40002 9.9254 3.40002C11.6419 3.40002 13.1685 4.88733 14.2231 7.58849C14.7716 8.9931 15.175 10.6623 15.4142 12.4781C15.4358 12.6404 15.4539 12.805 15.4723 12.9696C15.4785 12.9796 15.4819 12.9893 15.4808 12.9969C15.4808 12.9969 15.6212 13.8746 15.6512 15.3996H15.6354C15.4269 15.2285 12.9689 13.2973 8.89424 13.8566C8.95578 13.1669 9.0404 12.4962 9.14963 11.8531C9.1554 11.8204 9.16155 11.7885 9.16732 11.7558C10.7654 11.7077 12.1642 11.8931 13.2369 12.1366C13.2331 12.1112 13.2296 12.085 13.2254 12.0596C13.005 10.6866 12.6796 9.42964 12.26 8.35541C11.5742 6.59887 10.6792 5.50772 9.92501 5.50772C9.17078 5.50772 8.27578 6.59887 7.59001 8.35541C7.42386 8.78041 7.2727 9.23349 7.13732 9.71118C6.94694 10.3808 6.78694 11.0989 6.65886 11.8531C6.46963 12.9673 6.35155 14.1619 6.30809 15.4H4.20001V15.3993Z" fill="white"/>
</g>
<defs>
<clipPath id="clip0_30489_48378">
<rect width="20" height="20.0007" fill="white"/>
</clipPath>
</defs>
</svg>
