<svg width="20" height="20" viewBox="0 0 20 20" fill="none" xmlns="http://www.w3.org/2000/svg">
<g clip-path="url(#clip0_27617_531)">
<path d="M10 20C15.5228 20 20 15.5228 20 10C20 4.47715 15.5228 0 10 0C4.47715 0 0 4.47715 0 10C0 15.5228 4.47715 20 10 20Z" fill="white"/>
<path d="M19.9744 9.3221C19.6001 3.81143 14.8301 -0.350571 9.3211 0.0237622C6.57677 0.210762 4.16677 1.4891 2.48476 3.4041L2.47976 3.40077C2.46776 3.4161 2.45743 3.43143 2.44709 3.44677C0.77676 5.37377 -0.163241 7.9341 0.0234256 10.6791C0.040759 10.9411 0.0714256 11.1978 0.109092 11.4524C0.109092 11.4648 0.112426 11.4748 0.114092 11.4868C0.139759 11.6544 0.169092 11.8224 0.201426 11.9868C0.232074 12.1387 0.266306 12.2898 0.304092 12.4401C1.45943 17.0454 5.77377 20.3071 10.6784 19.9734C16.1874 19.5988 20.3511 14.8291 19.9764 9.31877L19.9744 9.3221ZM17.7978 9.47077C17.8441 10.1488 17.8011 10.8128 17.6798 11.4528C17.6798 11.4494 17.6764 11.4461 17.6764 11.4424C16.9504 9.6711 15.5164 8.3911 14.2568 7.6841C14.5118 4.68243 13.4934 3.4161 12.3401 3.21076C12.1166 3.16878 11.8869 3.17293 11.6651 3.22294C11.4433 3.27296 11.234 3.3678 11.0502 3.50163C10.8664 3.63543 10.7118 3.80543 10.5961 4.00117C10.4803 4.19687 10.4058 4.4142 10.3771 4.63977C10.349 4.85737 10.3641 5.07837 10.4215 5.2901C10.479 5.50183 10.5776 5.7002 10.7118 5.87377C10.846 6.04733 11.0131 6.19273 11.2036 6.30163C11.394 6.41057 11.6041 6.48083 11.8218 6.50843C11.9021 6.51877 11.9808 6.5221 12.0578 6.52043C12.0634 6.62757 12.0663 6.73483 12.0664 6.8421C11.0001 6.57877 10.0041 6.52543 9.09543 6.60777C8.75373 6.63017 8.41367 6.67303 8.0771 6.7361C8.19043 5.72277 8.57177 4.5831 9.30943 3.75143C10.0228 2.94543 11.0841 2.4851 12.2408 2.6031C12.4601 2.62543 12.6944 2.6801 12.9048 2.75043C12.9151 2.75376 12.9254 2.7571 12.9341 2.75876C15.6141 3.85077 17.5874 6.39543 17.7961 9.47077H17.7978ZM10.8274 10.9974C10.8274 10.9974 10.8274 10.9991 10.8258 11.0008C10.5729 11.3641 10.2864 11.7028 9.9701 12.0124C9.49097 11.5063 9.08533 10.9354 8.7651 10.3164C8.74977 10.2838 8.73277 10.2548 8.7171 10.2221V10.2188C8.52943 9.81763 8.37933 9.39993 8.26877 8.9711C8.97877 8.80343 9.67543 8.74177 10.3414 8.77443L10.4474 8.77943H10.4508C10.8684 8.81377 11.3031 8.89077 11.7531 9.0141C11.5442 9.7165 11.2328 10.3842 10.8291 10.9958L10.8274 10.9974ZM7.41143 2.62376L7.40643 2.63043C6.2341 4.14343 5.84377 6.0241 5.8611 7.46843C3.13309 8.74843 2.54776 10.2631 2.94476 11.3651C2.95476 11.3961 2.96709 11.4251 2.97909 11.4544C3.15013 11.863 3.4764 12.1869 3.88617 12.3551C4.29593 12.5232 4.7557 12.5218 5.16443 12.3511C5.573 12.1801 5.89693 11.8538 6.06507 11.444C6.23323 11.0342 6.23177 10.5745 6.0611 10.1658C6.03003 10.0932 5.99407 10.0228 5.95343 9.9551C6.0391 9.89843 6.13143 9.84243 6.23077 9.7841C6.5351 10.8401 6.98543 11.7318 7.51077 12.4778C7.70077 12.7601 7.9061 13.0321 8.1301 13.2941C7.19577 13.7031 6.01843 13.9428 4.9281 13.7201C3.8741 13.5048 2.94476 12.8168 2.46743 11.7554C2.37598 11.5473 2.30714 11.3299 2.26209 11.1071C2.23395 10.9157 2.21282 10.7234 2.19876 10.5304C1.95543 6.94843 4.1771 3.7601 7.41143 2.62376ZM10.5294 17.7984C8.40243 17.9438 6.41377 17.2184 4.9111 15.9278C6.80743 16.1864 8.63177 15.5838 9.87443 14.8464C12.3471 16.5698 13.9524 16.3198 14.7088 15.4248C14.8569 15.252 14.9683 15.0508 15.0359 14.8335C15.1035 14.6162 15.1259 14.3874 15.1019 14.161C15.0779 13.9347 15.0078 13.7157 14.8961 13.5175C14.7843 13.3192 14.6333 13.1459 14.4521 13.0081C14.2776 12.8751 14.0786 12.7777 13.8665 12.7217C13.6543 12.6656 13.4332 12.6518 13.2158 12.6813C12.9984 12.7107 12.7889 12.7826 12.5992 12.8931C12.4096 13.0035 12.2436 13.1502 12.1108 13.3248C12.0631 13.3881 12.0201 13.4568 11.9824 13.5251C11.8918 13.4788 11.7958 13.4274 11.6984 13.3711C12.3952 12.6523 12.9661 11.8215 13.3874 10.9134C13.5383 10.6061 13.6708 10.2901 13.7844 9.9671C14.6061 10.5731 15.4034 11.4714 15.7561 12.5271C16.0968 13.5471 15.9664 14.6971 15.2854 15.6404C15.1509 15.8235 14.9971 15.9915 14.8268 16.1418L14.8201 16.1484C13.5895 17.1178 12.0945 17.6923 10.5314 17.7968L10.5294 17.7984Z" fill="url(#paint0_linear_27617_531)"/>
<path style="mix-blend-mode:overlay" opacity="0.9" d="M12.3401 3.20905C12.1525 3.17343 11.9602 3.17117 11.7718 3.20238C12.7288 3.72236 13.4251 5.17203 13.0591 8.03337C12.9379 8.96393 12.6645 9.86823 12.2498 10.71C11.8924 11.4782 11.4273 12.1915 10.8685 12.8284C11.1334 13.0277 11.4106 13.21 11.6985 13.3744C12.3953 12.6557 12.9663 11.825 13.3878 10.917C13.8035 10.0756 14.077 9.17116 14.1971 8.24036C14.6338 4.8347 13.5625 3.42803 12.3405 3.21038L12.3401 3.20905Z" fill="url(#paint1_radial_27617_531)"/>
<g style="mix-blend-mode:overlay" opacity="0.8">
<path d="M13.0587 8.03177C13.425 5.17177 12.7283 3.72077 11.7717 3.20044C11.734 3.20544 11.6983 3.21411 11.6603 3.22277C12.5967 3.76177 13.2707 5.20944 12.9097 8.03177C12.7885 8.96234 12.5151 9.86664 12.1003 10.7084C11.7559 11.4494 11.3107 12.1393 10.7773 12.7584C10.808 12.7824 10.8373 12.8048 10.868 12.8268C11.4263 12.1895 11.8913 11.4761 12.249 10.7081C12.6648 9.86671 12.9384 8.96257 13.0587 8.03177Z" fill="white"/>
</g>
<path style="mix-blend-mode:overlay" opacity="0.5" d="M9.42204 14.5193C9.33137 14.451 9.24571 14.379 9.15871 14.307C7.74671 14.896 5.79037 15.2653 3.84637 14.8137C4.16294 15.2192 4.51891 15.5923 4.90904 15.9277C6.80537 16.1863 8.62971 15.5837 9.87237 14.8463C9.71964 14.7396 9.56894 14.6301 9.42037 14.5177L9.42204 14.5193Z" fill="url(#paint2_radial_27617_531)"/>
<path style="mix-blend-mode:overlay" opacity="0.6" d="M9.16007 14.3071C9.11741 14.2711 9.07307 14.2355 9.03207 14.1995C7.60974 14.7675 5.64341 15.1081 3.70441 14.6238C3.75241 14.6871 3.80041 14.7521 3.84807 14.8138C5.79074 15.2655 7.74807 14.8961 9.16007 14.3071Z" fill="url(#paint3_linear_27617_531)"/>
<path style="mix-blend-mode:overlay" opacity="0.9" d="M2.94608 11.367C2.95608 11.3977 2.96841 11.427 2.98041 11.456C3.04374 11.6067 3.12574 11.7417 3.22508 11.8633C3.19774 10.775 4.10475 9.44501 6.76408 8.33267C7.63048 7.97231 8.55038 7.75721 9.48675 7.69601C10.331 7.62074 11.1816 7.66687 12.0127 7.83301C12.0557 7.47367 12.0727 7.13834 12.0694 6.84201C11.0987 6.59764 10.0937 6.51841 9.09675 6.60767C8.16028 6.66901 7.24031 6.88411 6.37375 7.24434C3.20641 8.56901 2.52341 10.2 2.94641 11.3687L2.94608 11.367Z" fill="url(#paint4_radial_27617_531)"/>
<g style="mix-blend-mode:overlay" opacity="0.8">
<path d="M6.76423 8.33447C4.1049 9.44714 3.19755 10.7768 3.22522 11.8651C3.24922 11.8941 3.27489 11.9218 3.30055 11.9491C3.29855 10.8691 4.2159 9.5618 6.83957 8.4628C7.70597 8.10244 8.62587 7.88734 9.56223 7.82614C10.3762 7.75414 11.1962 7.7945 11.9992 7.94614C12.0046 7.90857 12.0092 7.8709 12.0129 7.83314C11.1816 7.66794 10.3311 7.62194 9.4869 7.69647C8.55053 7.75784 7.6307 7.97294 6.76423 8.33314V8.33447Z" fill="white"/>
</g>
<path style="mix-blend-mode:overlay" opacity="0.4" d="M14.2004 8.23863C14.1871 8.35163 14.1681 8.46096 14.1491 8.57229C15.3641 9.49996 16.6631 11.011 17.2451 12.919C17.4374 12.4415 17.5825 11.9464 17.6781 11.4406C16.9541 9.66929 15.5201 8.39063 14.2604 7.68396C14.2451 7.86396 14.2261 8.04696 14.2021 8.23863H14.2004Z" fill="url(#paint5_radial_27617_531)"/>
<path style="mix-blend-mode:overlay" opacity="0.5" d="M14.1491 8.57227C14.1388 8.62693 14.1301 8.6836 14.1198 8.73827C15.3231 9.68627 16.6015 11.2183 17.1508 13.1399C17.1831 13.0666 17.2141 12.9926 17.2431 12.9193C16.6615 11.0109 15.3641 9.5016 14.1471 8.57227H14.1491Z" fill="url(#paint6_linear_27617_531)"/>
<path style="mix-blend-mode:overlay" opacity="0.9" d="M14.7086 15.4231C14.8323 15.2774 14.9306 15.112 14.9996 14.9337C14.0703 15.5017 12.4663 15.3804 10.1716 13.6327C9.42565 13.0629 8.77915 12.3736 8.25828 11.5927C7.77091 10.8995 7.38535 10.14 7.11328 9.3374C6.78128 9.4794 6.48195 9.6334 6.22528 9.78407C6.49961 10.7468 6.93338 11.6568 7.50861 12.4761C8.02195 13.2427 8.66195 13.9361 9.42195 14.5161C12.1533 16.5971 13.9076 16.3727 14.7066 15.4227L14.7086 15.4231Z" fill="url(#paint7_radial_27617_531)"/>
<g style="mix-blend-mode:overlay" opacity="0.8">
<path d="M10.1732 13.633C12.4662 15.38 14.0715 15.5017 15.0005 14.9333C15.0142 14.8977 15.0262 14.8617 15.0365 14.8273C14.1022 15.37 12.5105 15.2277 10.2482 13.5047C9.50225 12.9349 8.85575 12.2456 8.33485 11.4647C7.86548 10.796 7.49062 10.0658 7.22085 9.29468C7.18485 9.31001 7.15085 9.32368 7.11652 9.33901C7.38845 10.1417 7.77392 10.9013 8.26118 11.5947C8.77452 12.3613 9.41452 13.0547 10.1745 13.6347L10.1732 13.633Z" fill="white"/>
</g>
<path style="mix-blend-mode:overlay" opacity="0.3" d="M6.37226 7.241C6.4766 7.198 6.58093 7.15866 6.68693 7.11933C6.88226 5.603 7.54093 3.72233 8.9036 2.26599C8.3936 2.33932 7.89193 2.45932 7.40593 2.62866C6.23326 4.14166 5.84326 6.02233 5.8606 7.467C6.02293 7.39033 6.1926 7.31466 6.3706 7.24133L6.37226 7.241Z" fill="url(#paint8_radial_27617_531)"/>
<path style="mix-blend-mode:overlay" opacity="0.4" d="M6.68683 7.11944C6.74016 7.10077 6.7915 7.08011 6.8445 7.06144C7.0635 5.54477 7.7515 3.67277 9.1395 2.23511C9.06083 2.24377 8.98183 2.25411 8.90316 2.26444C7.54083 3.72244 6.88216 5.60144 6.68716 7.11777V7.11944H6.68683Z" fill="url(#paint9_linear_27617_531)"/>
<path style="mix-blend-mode:multiply" opacity="0.4" d="M9.32091 0.0240449C6.57591 0.210711 4.16658 1.48905 2.48426 3.40406L2.44659 3.44673C2.77326 3.77206 3.84458 4.41206 4.27758 4.67906C5.14041 3.74949 6.21665 3.04406 7.41325 2.62371C7.49725 2.51405 7.58591 2.40638 7.67858 2.30205C8.80791 1.02705 10.3499 0.354379 12.1399 0.354379C12.3386 0.354379 12.7442 0.387045 12.7526 0.387045C11.6388 0.0666371 10.4775 -0.0563295 9.32125 0.0237115L9.32091 0.0240449Z" fill="url(#paint10_linear_27617_531)"/>
<path style="mix-blend-mode:multiply" opacity="0.4" d="M10.5293 17.8C8.40235 17.9454 6.41368 17.22 4.91101 15.9297C4.76988 15.9113 4.62948 15.8878 4.49001 15.8594C2.82135 15.5187 1.46602 14.5194 0.572683 12.9707C0.474316 12.7996 0.384646 12.6236 0.304016 12.4434C1.45935 17.0487 5.77368 20.3107 10.6767 19.9767C10.699 19.472 10.55 18.3 10.5277 17.8H10.5293Z" fill="url(#paint11_linear_27617_531)"/>
<path style="mix-blend-mode:multiply" opacity="0.4" d="M19.9746 9.32198C19.6666 9.29098 18.1673 9.40931 17.7979 9.47065C17.8439 10.1486 17.8013 10.8126 17.6796 11.4526C17.7309 11.5793 17.7806 11.7093 17.8249 11.841C18.3643 13.4566 18.1759 15.1286 17.2826 16.679C17.1837 16.8498 17.0764 17.0155 16.9609 17.1756C16.9609 17.1756 16.9659 17.172 16.9676 17.1686C18.9993 15.192 20.1816 12.3716 19.9746 9.32365V9.32198Z" fill="url(#paint12_linear_27617_531)"/>
<path style="mix-blend-mode:multiply" opacity="0.5" d="M12.2427 2.60135C12.4617 2.62368 12.6961 2.67835 12.9067 2.74868C12.9167 2.75202 12.9274 2.75535 12.9357 2.75702C13.7942 3.1074 14.5839 3.60687 15.2684 4.23237C15.2684 4.23237 15.2717 4.23403 15.2734 4.2357C15.6021 3.86103 16.2334 3.4487 16.2334 3.4487C16.2334 3.4487 15.2667 2.45935 13.7864 2.15135C12.7511 1.93568 10.4151 1.72869 8.94141 4.2357L8.95507 4.22237C9.06474 4.0577 9.17941 3.89703 9.31107 3.7497C10.0247 2.94369 11.0857 2.48302 12.2427 2.60135Z" fill="url(#paint13_linear_27617_531)"/>
<path style="mix-blend-mode:multiply" opacity="0.5" d="M15.2855 15.642C15.1509 15.825 14.9972 15.9931 14.8268 16.1434C14.8201 16.15 14.8115 16.157 14.8045 16.164C14.0718 16.7319 13.2445 17.1657 12.3608 17.4457C12.3591 17.4457 12.3575 17.4457 12.3555 17.4474C12.5165 17.9197 12.5575 18.6727 12.5575 18.6727C12.5575 18.6727 13.8975 18.3307 14.9041 17.2027C15.6075 16.4137 16.9558 14.4937 15.5215 11.9644C15.5215 11.9644 15.5235 11.9727 15.5268 11.983C15.6158 12.1597 15.6961 12.3407 15.7578 12.5274C16.0985 13.5474 15.9681 14.6974 15.2871 15.6404L15.2855 15.642Z" fill="url(#paint14_linear_27617_531)"/>
<path style="mix-blend-mode:multiply" opacity="0.5" d="M2.47097 11.7591C2.37939 11.5508 2.31044 11.3334 2.2653 11.1104C2.26364 11.1004 2.2603 11.0897 2.25864 11.0794C2.13197 10.1571 2.17297 9.22273 2.36997 8.32273V8.31739C1.8803 8.22139 1.20797 7.87939 1.20797 7.87939C1.20797 7.87939 0.834637 9.21273 1.30897 10.6467C1.64097 11.6511 2.6283 13.7784 5.53563 13.8007C5.53563 13.8007 5.5273 13.7987 5.51697 13.7954C5.3203 13.7834 5.12363 13.7631 4.9303 13.7237C3.87597 13.5081 2.94664 12.8201 2.46897 11.7591H2.47097Z" fill="url(#paint15_linear_27617_531)"/>
<path style="mix-blend-mode:multiply" opacity="0.6" d="M11.8214 6.50706C11.9017 6.51706 11.9804 6.5204 12.0574 6.51873C12.0574 6.51873 12.0044 5.48006 11.8777 4.94606C11.7494 4.41373 11.5611 4.0594 11.3557 3.8594C11.2071 3.71573 10.7397 3.5374 10.3771 4.63606C10.3489 4.85366 10.364 5.07466 10.4214 5.28643C10.4788 5.4982 10.5774 5.69656 10.7115 5.87016C10.8457 6.0438 11.0128 6.18923 11.2032 6.29816C11.3937 6.40713 11.6037 6.47743 11.8214 6.50506V6.50673V6.50706Z" fill="url(#paint16_linear_27617_531)"/>
<path style="mix-blend-mode:multiply" opacity="0.5" d="M6.0633 10.1691C6.0321 10.0966 5.996 10.0263 5.9553 9.95874C5.9553 9.95874 5.08063 10.5234 4.68363 10.8997C4.28663 11.2764 4.0743 11.6171 4.0043 11.8957C3.95463 12.0961 4.0333 12.5891 5.1663 12.3544C5.57487 12.1834 5.8988 11.8571 6.06693 11.4473C6.23507 11.0376 6.23363 10.5778 6.06297 10.1691H6.0633Z" fill="url(#paint17_linear_27617_531)"/>
<path style="mix-blend-mode:multiply" opacity="0.6" d="M12.1127 13.3229C12.0647 13.3863 12.022 13.4549 11.9844 13.5229C11.9844 13.5229 12.9104 13.9973 13.4357 14.1529C13.961 14.3089 14.3614 14.3226 14.637 14.2436C14.8357 14.1873 15.2224 13.8706 14.4537 13.0083C14.2792 12.8753 14.0803 12.778 13.8682 12.7219C13.6561 12.6659 13.435 12.6522 13.2176 12.6816C13.0002 12.711 12.7907 12.7829 12.6012 12.8933C12.4116 13.0037 12.2456 13.1504 12.1127 13.3249V13.3229Z" fill="url(#paint18_linear_27617_531)"/>
<path style="mix-blend-mode:multiply" opacity="0.3" d="M11.7533 9.01562C11.5433 9.71396 11.2487 10.349 10.8877 10.9083C10.8687 10.9373 10.85 10.9666 10.8293 10.9973C10.8293 10.9973 10.8293 10.999 10.8277 11.0006C10.5748 11.364 10.2884 11.7027 9.97198 12.0123C10.2013 12.2553 10.4477 12.4913 10.72 12.7156C11.0293 12.9589 11.3564 13.1785 11.6987 13.3726C12.3955 12.654 12.9666 11.8233 13.388 10.9153C13.5388 10.6078 13.6712 10.2917 13.7847 9.96862C13.4323 9.71029 13.0763 9.50329 12.748 9.36296C12.4243 9.22426 12.0914 9.10819 11.7517 9.01562H11.7537H11.7533Z" fill="url(#paint19_linear_27617_531)"/>
<path style="mix-blend-mode:multiply" opacity="0.3" d="M4.91145 15.9298C6.80745 16.1881 8.63175 15.5858 9.87442 14.8481C9.72172 14.7414 9.57102 14.6318 9.42245 14.5194C8.94982 14.1579 8.51635 13.7479 8.12909 13.2961C7.19442 13.7048 6.01709 13.9444 4.92675 13.7218C3.87275 13.5064 2.94344 12.8184 2.46577 11.7574C2.37431 11.5492 2.30547 11.3317 2.26044 11.1088C2.5361 13.0424 3.51142 14.7298 4.90975 15.9294L4.91145 15.9298Z" fill="url(#paint20_linear_27617_531)"/>
<path style="mix-blend-mode:multiply" opacity="0.3" d="M9.97176 12.0121C9.49276 11.506 9.08726 10.9352 8.76709 10.3164C8.75176 10.2837 8.73442 10.2547 8.71909 10.2221V10.2187C8.53142 9.8176 8.38132 9.3999 8.27076 8.97107C7.94542 9.04807 7.61876 9.14407 7.29009 9.2674C6.92522 9.4132 6.57169 9.5859 6.23242 9.78407C6.53709 10.8401 6.98709 11.7317 7.51242 12.4777C7.70242 12.7601 7.90809 13.0321 8.13242 13.2941C8.53242 13.1194 8.89042 12.9124 9.17576 12.6984C9.45682 12.4873 9.72332 12.2574 9.97342 12.0104L9.97176 12.0121Z" fill="url(#paint21_linear_27617_531)"/>
<path style="mix-blend-mode:multiply" opacity="0.3" d="M7.40654 2.63036C6.23421 4.14336 5.84387 6.02403 5.86121 7.46836C6.03014 7.38903 6.20074 7.31323 6.37287 7.24103C6.92144 7.01189 7.49274 6.84149 8.07721 6.73269C8.19054 5.71936 8.57187 4.57969 9.30954 3.74803C10.0229 2.94203 11.0842 2.48136 12.2412 2.5997C12.4602 2.62203 12.6945 2.6767 12.9052 2.74703C12.9152 2.75036 12.9255 2.7537 12.9342 2.75536C11.836 2.30726 10.6497 2.11705 9.46654 2.19936C8.74787 2.24903 8.05987 2.39436 7.40954 2.6237C7.40787 2.62536 7.40621 2.6287 7.40454 2.63036H7.40654Z" fill="url(#paint22_linear_27617_531)"/>
<path style="mix-blend-mode:multiply" opacity="0.3" d="M17.6781 11.439C16.9528 9.66766 15.5184 8.38733 14.2588 7.68066C14.2434 7.86066 14.2248 8.04533 14.1988 8.23866C14.1224 8.8282 13.9842 9.40806 13.7864 9.96866C14.6081 10.5747 15.4054 11.473 15.7581 12.529C16.0984 13.549 15.9684 14.699 15.2874 15.642C15.1529 15.825 14.9991 15.9931 14.8288 16.1433L14.8221 16.15C16.2904 14.9967 17.3288 13.3333 17.6851 11.451C17.6851 11.4477 17.6818 11.444 17.6818 11.4407L17.6781 11.439Z" fill="url(#paint23_linear_27617_531)"/>
<path style="mix-blend-mode:multiply" opacity="0.3" d="M8.07216 7.93735C8.11402 8.28601 8.17976 8.63138 8.26882 8.97101C8.97916 8.80335 9.67549 8.74168 10.3415 8.77435L10.4475 8.77935H10.4508C10.8685 8.81368 11.3032 8.89068 11.7535 9.01401C11.8492 8.69401 11.9298 8.36168 11.9878 8.01601C12.0512 7.58501 12.0698 7.18601 12.0682 6.83868C11.0022 6.57535 10.0062 6.52201 9.09749 6.60435C8.75579 6.62675 8.41572 6.66961 8.07916 6.73268C8.03116 7.16735 8.02916 7.57968 8.07382 7.93601L8.07216 7.93735Z" fill="url(#paint24_linear_27617_531)"/>
</g>
<defs>
<linearGradient id="paint0_linear_27617_531" x1="3.17576" y1="16.8248" x2="15.9254" y2="4.07343" gradientUnits="userSpaceOnUse">
<stop stop-color="#E6007A"/>
<stop offset="0.21" stop-color="#703AC2"/>
<stop offset="0.46" stop-color="#0070EB"/>
<stop offset="0.77" stop-color="#0297FB"/>
<stop offset="1" stop-color="#0AE2FF"/>
</linearGradient>
<radialGradient id="paint1_radial_27617_531" cx="0" cy="0" r="1" gradientUnits="userSpaceOnUse" gradientTransform="translate(12.8501 7.97503) scale(3.80267)">
<stop stop-color="white"/>
<stop offset="1" stop-color="white" stop-opacity="0"/>
</radialGradient>
<radialGradient id="paint2_radial_27617_531" cx="0" cy="0" r="1" gradientUnits="userSpaceOnUse" gradientTransform="translate(7.23004 15.0293) scale(2.21279 2.2128)">
<stop stop-color="white"/>
<stop offset="1" stop-color="white" stop-opacity="0"/>
</radialGradient>
<linearGradient id="paint3_linear_27617_531" x1="3.90974" y1="14.6548" x2="6.04241" y2="14.6255" gradientUnits="userSpaceOnUse">
<stop stop-color="white" stop-opacity="0"/>
<stop offset="1" stop-color="white"/>
</linearGradient>
<radialGradient id="paint4_radial_27617_531" cx="0" cy="0" r="1" gradientUnits="userSpaceOnUse" gradientTransform="translate(6.82115 8.54267) rotate(-120) scale(3.80267)">
<stop stop-color="white"/>
<stop offset="1" stop-color="white" stop-opacity="0"/>
</radialGradient>
<radialGradient id="paint5_radial_27617_531" cx="0" cy="0" r="1" gradientUnits="userSpaceOnUse" gradientTransform="translate(15.741 9.88296) rotate(-120) scale(2.21279)">
<stop stop-color="white"/>
<stop offset="1" stop-color="white" stop-opacity="0"/>
</radialGradient>
<linearGradient id="paint6_linear_27617_531" x1="17.0758" y1="12.9443" x2="15.9841" y2="11.1123" gradientUnits="userSpaceOnUse">
<stop stop-color="white" stop-opacity="0"/>
<stop offset="1" stop-color="white"/>
</linearGradient>
<radialGradient id="paint7_radial_27617_531" cx="0" cy="0" r="1" gradientUnits="userSpaceOnUse" gradientTransform="translate(10.1468 13.3041) rotate(120) scale(3.80267)">
<stop stop-color="white"/>
<stop offset="1" stop-color="white" stop-opacity="0"/>
</radialGradient>
<radialGradient id="paint8_radial_27617_531" cx="0" cy="0" r="1" gradientUnits="userSpaceOnUse" gradientTransform="translate(7.0274 5.087) rotate(120) scale(2.21279)">
<stop stop-color="white"/>
<stop offset="1" stop-color="white" stop-opacity="0"/>
</radialGradient>
<linearGradient id="paint9_linear_27617_531" x1="9.01083" y1="2.39811" x2="7.97116" y2="4.26044" gradientUnits="userSpaceOnUse">
<stop stop-color="white" stop-opacity="0"/>
<stop offset="1" stop-color="white"/>
</linearGradient>
<linearGradient id="paint10_linear_27617_531" x1="9.47525" y1="1.45138" x2="6.21658" y2="2.39938" gradientUnits="userSpaceOnUse">
<stop stop-color="#231F20"/>
<stop offset="1" stop-color="white"/>
</linearGradient>
<linearGradient id="paint11_linear_27617_531" x1="3.31935" y1="13.876" x2="6.04401" y2="16.72" gradientUnits="userSpaceOnUse">
<stop stop-color="#231F20"/>
<stop offset="1" stop-color="white"/>
</linearGradient>
<linearGradient id="paint12_linear_27617_531" x1="17.9416" y1="13.448" x2="18.8896" y2="10.566" gradientUnits="userSpaceOnUse">
<stop stop-color="#231F20"/>
<stop offset="1" stop-color="white"/>
</linearGradient>
<linearGradient id="paint13_linear_27617_531" x1="10.9591" y1="3.10102" x2="15.3267" y2="4.1007" gradientUnits="userSpaceOnUse">
<stop stop-color="#231F20"/>
<stop offset="1" stop-color="white"/>
</linearGradient>
<linearGradient id="paint14_linear_27617_531" x1="15.4955" y1="14.2804" x2="12.4438" y2="17.5637" gradientUnits="userSpaceOnUse">
<stop stop-color="#231F20"/>
<stop offset="1" stop-color="white"/>
</linearGradient>
<linearGradient id="paint15_linear_27617_531" x1="3.5443" y1="12.6207" x2="2.22764" y2="8.33773" gradientUnits="userSpaceOnUse">
<stop stop-color="#231F20"/>
<stop offset="1" stop-color="white"/>
</linearGradient>
<linearGradient id="paint16_linear_27617_531" x1="11.9137" y1="4.7114" x2="10.5327" y2="6.0944" gradientUnits="userSpaceOnUse">
<stop stop-color="#231F20"/>
<stop offset="1" stop-color="white"/>
</linearGradient>
<linearGradient id="paint17_linear_27617_531" x1="4.46297" y1="10.9841" x2="6.3503" y2="11.4911" gradientUnits="userSpaceOnUse">
<stop stop-color="#231F20"/>
<stop offset="1" stop-color="white"/>
</linearGradient>
<linearGradient id="paint18_linear_27617_531" x1="13.6204" y1="14.3013" x2="13.1147" y2="12.4146" gradientUnits="userSpaceOnUse">
<stop stop-color="#231F20"/>
<stop offset="1" stop-color="white"/>
</linearGradient>
<linearGradient id="paint19_linear_27617_531" x1="10.7473" y1="12.623" x2="11.5773" y2="11.4783" gradientUnits="userSpaceOnUse">
<stop stop-color="#231F20"/>
<stop offset="1" stop-color="white"/>
</linearGradient>
<linearGradient id="paint20_linear_27617_531" x1="7.89275" y1="12.1271" x2="6.23442" y2="12.9178" gradientUnits="userSpaceOnUse">
<stop stop-color="#231F20"/>
<stop offset="1" stop-color="white"/>
</linearGradient>
<linearGradient id="paint21_linear_27617_531" x1="7.29009" y1="9.3664" x2="7.80342" y2="10.4327" gradientUnits="userSpaceOnUse">
<stop stop-color="#231F20"/>
<stop offset="1" stop-color="white"/>
</linearGradient>
<linearGradient id="paint22_linear_27617_531" x1="9.67754" y1="6.07369" x2="9.32321" y2="4.85003" gradientUnits="userSpaceOnUse">
<stop stop-color="#231F20"/>
<stop offset="1" stop-color="white"/>
</linearGradient>
<linearGradient id="paint23_linear_27617_531" x1="13.5078" y1="11.6783" x2="14.5344" y2="11.9147" gradientUnits="userSpaceOnUse">
<stop stop-color="#231F20"/>
<stop offset="1" stop-color="white"/>
</linearGradient>
<linearGradient id="paint24_linear_27617_531" x1="11.8972" y1="8.20968" x2="10.5948" y2="7.97335" gradientUnits="userSpaceOnUse">
<stop stop-color="#231F20"/>
<stop offset="1" stop-color="white"/>
</linearGradient>
<clipPath id="clip0_27617_531">
<rect width="20" height="20.0002" fill="white"/>
</clipPath>
</defs>
</svg>
