<svg width="20" height="20" viewBox="0 0 20 20" fill="none" xmlns="http://www.w3.org/2000/svg">
<circle cx="10" cy="10.0008" r="10" fill="#0000FF"/>
<path d="M5 5.79006C5 5.51947 5 5.38417 5.05099 5.28009C5.0998 5.18044 5.18038 5.09986 5.28003 5.05105C5.38411 5.00006 5.51941 5.00006 5.79 5.00006H14.21C14.4806 5.00006 14.6159 5.00006 14.72 5.05105C14.8196 5.09986 14.9002 5.18044 14.949 5.28009C15 5.38417 15 5.51947 15 5.79006V14.2101C15 14.4807 15 14.616 14.949 14.72C14.9002 14.8197 14.8196 14.9003 14.72 14.9491C14.6159 15.0001 14.4806 15.0001 14.21 15.0001H5.79C5.51941 15.0001 5.38411 15.0001 5.28003 14.9491C5.18038 14.9003 5.0998 14.8197 5.05099 14.72C5 14.616 5 14.4807 5 14.2101V5.79006Z" fill="white"/>
</svg>
