<svg width="20" height="20" viewBox="0 0 20 20" fill="none" xmlns="http://www.w3.org/2000/svg">
<rect y="0.000793457" width="20" height="20" rx="10" fill="black"/>
<circle cx="10" cy="10.0008" r="10" fill="#212324"/>
<path d="M2.25887 9.20965C2.60876 9.20965 2.95864 9.20965 3.30888 9.20965C3.45596 9.20965 3.57501 9.32871 3.57501 9.47579C3.57501 9.82568 3.57501 10.1756 3.57501 10.5258C3.57501 10.6656 3.45596 10.7847 3.30888 10.7847C2.95899 10.7847 2.6091 10.7847 2.25887 10.7847C2.11905 10.7847 2 10.6656 2 10.5258C2 10.1759 2 9.82602 2 9.47579C2 9.32871 2.11905 9.20965 2.25887 9.20965ZM4.45648 10.7286C4.75757 10.7286 5.05831 10.7286 5.36633 10.7286C5.4923 10.7286 5.59024 10.8265 5.59024 10.9525C5.59024 11.2605 5.59024 11.5613 5.59024 11.8693C5.59024 11.9953 5.4923 12.0932 5.36633 12.0932C5.05831 12.0932 4.75757 12.0932 4.45648 12.0932C4.33051 12.0932 4.22564 11.9953 4.22564 11.8693C4.22564 11.5613 4.22564 11.2605 4.22564 10.9525C4.22564 10.8265 4.33051 10.7286 4.45648 10.7286ZM6.81537 11.3934C7.07423 11.3934 7.33345 11.3934 7.59232 11.3934C7.69718 11.3934 7.7882 11.4844 7.7882 11.5893C7.7882 11.8482 7.7882 12.1074 7.7882 12.3663C7.7882 12.4711 7.69718 12.5552 7.59232 12.5552C7.33345 12.5552 7.07423 12.5552 6.81537 12.5552C6.7105 12.5552 6.62641 12.4711 6.62641 12.3663C6.62641 12.1074 6.62641 11.8482 6.62641 11.5893C6.62641 11.4844 6.7105 11.3934 6.81537 11.3934ZM5.07943 3.97449C5.33137 4.21952 5.5764 4.46454 5.82142 4.70957C5.92628 4.81443 5.92628 4.98262 5.82142 5.08057C5.5764 5.33251 5.33137 5.57754 5.07943 5.82256C4.98148 5.92742 4.81329 5.92742 4.70843 5.82256C4.4634 5.57754 4.21838 5.33251 3.96643 5.08057C3.86849 4.98262 3.86849 4.81443 3.96643 4.70957C4.21838 4.46454 4.4634 4.21952 4.70843 3.97449C4.81364 3.86928 4.98148 3.86928 5.07943 3.97449ZM5.56255 6.5919C5.77955 6.80889 5.99654 7.01896 6.20661 7.23596C6.29763 7.32697 6.29763 7.47406 6.20661 7.55781C5.99654 7.7748 5.77955 7.9918 5.56255 8.20187C5.47153 8.29288 5.33172 8.29288 5.2407 8.20187C5.02371 7.9918 4.81364 7.7748 4.59664 7.55781C4.50562 7.47371 4.50562 7.32697 4.59664 7.23596C4.81364 7.01896 5.02371 6.80889 5.2407 6.5919C5.33137 6.50123 5.47153 6.50123 5.56255 6.5919ZM6.7593 8.73379C6.94826 8.92275 7.1303 9.10479 7.31234 9.28683C7.38917 9.36366 7.38917 9.48271 7.31234 9.55989C7.1303 9.74193 6.94826 9.92396 6.7593 10.1057C6.68939 10.1825 6.56342 10.1825 6.48624 10.1057C6.3042 9.92362 6.12217 9.74158 5.94047 9.55989C5.86364 9.48306 5.86364 9.364 5.94047 9.28683C6.12251 9.10479 6.30455 8.92275 6.48624 8.73379C6.56342 8.66388 6.68939 8.66388 6.7593 8.73379ZM10.7839 2.25966C10.7839 2.60955 10.7839 2.95944 10.7839 3.30967C10.7839 3.45675 10.6648 3.57581 10.525 3.57581C10.1751 3.57581 9.82523 3.57581 9.475 3.57581C9.32791 3.57581 9.20886 3.45675 9.20886 3.30967C9.20886 2.95978 9.20886 2.6099 9.20886 2.25966C9.20886 2.11985 9.32791 2.00079 9.475 2.00079C9.82488 2.00079 10.1748 2.00079 10.525 2.00079C10.6648 2.00079 10.7839 2.1195 10.7839 2.25966ZM9.27219 4.45727C9.27219 4.75836 9.27219 5.05911 9.27219 5.36712C9.27219 5.49309 9.16733 5.59103 9.04136 5.59103C8.74027 5.59103 8.4326 5.59103 8.13151 5.59103C8.00554 5.59103 7.90067 5.49309 7.90067 5.36712C7.90067 5.05911 7.90067 4.75836 7.90067 4.45727C7.90067 4.3313 8.00554 4.22644 8.13151 4.22644C8.4326 4.22644 8.74027 4.22644 9.04136 4.22644C9.16698 4.22644 9.27219 4.3313 9.27219 4.45727ZM8.6001 6.81616C8.6001 7.07503 8.6001 7.33424 8.6001 7.59311C8.6001 7.69797 8.51601 7.78899 8.41114 7.78899C8.15228 7.78899 7.89306 7.78899 7.63419 7.78899C7.52933 7.78899 7.43831 7.69797 7.43831 7.59311C7.43831 7.33424 7.43831 7.07503 7.43831 6.81616C7.43831 6.7113 7.52933 6.6272 7.63419 6.6272C7.89306 6.6272 8.15228 6.6272 8.41114 6.6272C8.51601 6.6272 8.6001 6.71095 8.6001 6.81616ZM16.0263 5.08022C15.7813 5.33217 15.5293 5.57719 15.2843 5.82222C15.1794 5.92708 15.0182 5.92708 14.9133 5.82222C14.6683 5.57719 14.4163 5.33217 14.1713 5.08022C14.0734 4.98228 14.0734 4.81408 14.1713 4.70922C14.4163 4.4642 14.6683 4.21917 14.9133 3.97415C15.0182 3.86928 15.1794 3.86928 15.2843 3.97415C15.5293 4.21917 15.7813 4.4642 16.0263 4.70922C16.1312 4.81443 16.1312 4.98228 16.0263 5.08022ZM13.4085 5.56335C13.1916 5.78034 12.9746 5.99733 12.7576 6.2074C12.6735 6.29842 12.5267 6.29842 12.4357 6.2074C12.2256 5.99733 12.0087 5.78034 11.7917 5.56335C11.7006 5.47233 11.7006 5.33251 11.7917 5.24149C12.0087 5.0245 12.2256 4.81443 12.4357 4.59744C12.5267 4.50642 12.6738 4.50642 12.7576 4.59744C12.9746 4.81443 13.1916 5.0245 13.4085 5.24149C13.4926 5.33217 13.4926 5.47233 13.4085 5.56335ZM11.2597 6.76009C11.0777 6.94905 10.8957 7.13109 10.714 7.31313C10.6371 7.38996 10.5112 7.38996 10.434 7.31313C10.2519 7.13109 10.0699 6.94905 9.88822 6.76009C9.81139 6.69019 9.81139 6.56421 9.88822 6.48704C10.0703 6.305 10.2523 6.12296 10.434 5.94127C10.5108 5.86444 10.6368 5.86444 10.714 5.94127C10.896 6.12331 11.078 6.30534 11.2597 6.48704C11.3369 6.56421 11.3369 6.69019 11.2597 6.76009ZM17.7339 10.7847C17.384 10.7847 17.0341 10.7847 16.6911 10.7847C16.544 10.7847 16.425 10.6656 16.425 10.5258C16.425 10.1759 16.425 9.82602 16.425 9.47579C16.425 9.32871 16.544 9.20965 16.6911 9.20965C17.0341 9.20965 17.384 9.20965 17.7339 9.20965C17.8809 9.20965 18 9.32871 18 9.47579C18 9.82568 18 10.1756 18 10.5258C18 10.6656 17.8809 10.7847 17.7339 10.7847ZM15.5432 9.27264C15.2421 9.27264 14.9344 9.27264 14.6333 9.27264C14.5074 9.27264 14.4025 9.16778 14.4025 9.0418C14.4025 8.74071 14.4025 8.43305 14.4025 8.13196C14.4025 8.00598 14.5074 7.90112 14.6333 7.90112C14.9344 7.90112 15.2421 7.90112 15.5432 7.90112C15.6691 7.90112 15.774 8.00598 15.774 8.13196C15.774 8.43305 15.774 8.74071 15.774 9.0418C15.7744 9.16778 15.6691 9.27264 15.5432 9.27264ZM13.1777 8.6009C12.9188 8.6009 12.6596 8.6009 12.4008 8.6009C12.2959 8.6009 12.2118 8.5168 12.2118 8.41194C12.2118 8.15307 12.2118 7.89386 12.2118 7.63499C12.2118 7.53012 12.2959 7.43911 12.4008 7.43911C12.6596 7.43911 12.9188 7.43911 13.1777 7.43911C13.2826 7.43911 13.3736 7.53012 13.3736 7.63499C13.3736 7.89386 13.3736 8.15307 13.3736 8.41194C13.3736 8.5168 13.2826 8.6009 13.1777 8.6009ZM14.9133 16.0267C14.6683 15.7817 14.4163 15.5298 14.1713 15.2848C14.0734 15.1868 14.0734 15.0186 14.1713 14.9138C14.4163 14.6687 14.6683 14.4168 14.9133 14.1718C15.0182 14.0738 15.1794 14.0738 15.2843 14.1718C15.5293 14.4168 15.7813 14.6687 16.0263 14.9138C16.1312 15.0186 16.1312 15.1868 16.0263 15.2848C15.7813 15.5298 15.5293 15.7817 15.2843 16.0267C15.1794 16.132 15.0182 16.132 14.9133 16.0267ZM14.4305 13.4093C14.2205 13.1923 14.0035 12.9754 13.7865 12.7584C13.7024 12.6743 13.7024 12.5275 13.7865 12.4365C14.0035 12.2264 14.2205 12.0094 14.4305 11.7925C14.5215 11.7014 14.6686 11.7014 14.7596 11.7925C14.9697 12.0094 15.1867 12.2264 15.4037 12.4365C15.4878 12.5275 15.4878 12.6746 15.4037 12.7584C15.1867 12.9754 14.9697 13.1923 14.7596 13.4093C14.6683 13.4931 14.5215 13.4931 14.4305 13.4093ZM13.2334 11.2605C13.0514 11.0785 12.8694 10.8965 12.6877 10.7148C12.6108 10.6379 12.6108 10.512 12.6877 10.4417C12.8697 10.2527 13.0517 10.0707 13.2334 9.88866C13.3103 9.81183 13.4293 9.81183 13.5065 9.88866C13.6885 10.0707 13.8775 10.2527 14.0595 10.4417C14.1294 10.5116 14.1294 10.6376 14.0595 10.7148C13.8775 10.8968 13.6885 11.0788 13.5065 11.2605C13.4297 11.3374 13.3106 11.3374 13.2334 11.2605ZM9.20921 17.7347C9.20921 17.3848 9.20921 17.0349 9.20921 16.6919C9.20921 16.5448 9.32826 16.4258 9.47534 16.4258C9.82523 16.4258 10.1751 16.4258 10.5253 16.4258C10.6652 16.4258 10.7842 16.5448 10.7842 16.6919C10.7842 17.0349 10.7842 17.3848 10.7842 17.7347C10.7842 17.8817 10.6652 18.0008 10.5253 18.0008C10.1755 18.0008 9.82557 18.0008 9.47534 18.0008C9.32791 18.0008 9.20921 17.8817 9.20921 17.7347ZM10.7278 15.544C10.7278 15.2429 10.7278 14.9352 10.7278 14.6341C10.7278 14.5081 10.8257 14.4033 10.9517 14.4033C11.2597 14.4033 11.5605 14.4033 11.8685 14.4033C11.9945 14.4033 12.0924 14.5081 12.0924 14.6341C12.0924 14.9352 12.0924 15.2429 12.0924 15.544C12.0924 15.6699 11.9945 15.7748 11.8685 15.7748C11.5605 15.7748 11.2597 15.7748 10.9517 15.7748C10.8257 15.7748 10.7278 15.6699 10.7278 15.544ZM11.3926 13.1782C11.3926 12.9193 11.3926 12.6601 11.3926 12.4012C11.3926 12.2963 11.4836 12.2122 11.5885 12.2122C11.8474 12.2122 12.1066 12.2122 12.3655 12.2122C12.4703 12.2122 12.5544 12.2963 12.5544 12.4012C12.5544 12.6601 12.5544 12.9193 12.5544 13.1782C12.5544 13.283 12.4703 13.374 12.3655 13.374C12.1066 13.374 11.8474 13.374 11.5885 13.374C11.4836 13.3744 11.3926 13.2834 11.3926 13.1782ZM3.96678 14.9141C4.21872 14.6691 4.46375 14.4171 4.70877 14.1721C4.81364 14.0742 4.98183 14.0742 5.07977 14.1721C5.33172 14.4171 5.57674 14.6691 5.82177 14.9141C5.92663 15.019 5.92663 15.1872 5.82177 15.2851C5.57674 15.5301 5.33172 15.7821 5.07977 16.0271C4.98183 16.132 4.81364 16.132 4.70877 16.0271C4.46375 15.7821 4.21872 15.5301 3.96678 15.2851C3.86884 15.1872 3.86884 15.019 3.96678 14.9141ZM6.59145 14.431C6.80844 14.2209 7.01852 14.0039 7.23551 13.7869C7.32653 13.7028 7.47361 13.7028 7.55736 13.7869C7.77435 14.0039 7.99135 14.2209 8.20142 14.431C8.29244 14.522 8.29244 14.6691 8.20142 14.7601C7.99135 14.9702 7.77435 15.1872 7.55736 15.4041C7.47326 15.4882 7.32653 15.4882 7.23551 15.4041C7.01852 15.1872 6.80844 14.9702 6.59145 14.7601C6.50043 14.6691 6.50043 14.522 6.59145 14.431ZM8.733 13.2342C8.92196 13.0522 9.104 12.8701 9.28604 12.6885C9.36287 12.6116 9.48192 12.6116 9.55909 12.6885C9.74113 12.8705 9.92317 13.0525 10.1049 13.2342C10.1817 13.3111 10.1817 13.437 10.1049 13.5073C9.92282 13.6893 9.74078 13.8783 9.55909 14.0603C9.48226 14.1302 9.36321 14.1302 9.28604 14.0603C9.104 13.8783 8.92196 13.6893 8.733 13.5073C8.66309 13.4374 8.66309 13.3111 8.733 13.2342Z" fill="white"/>
</svg>
