<svg width="20" height="20" viewBox="0 0 20 20" fill="none" xmlns="http://www.w3.org/2000/svg">
<path d="M10.0028 20C15.5257 20 20.0028 15.5229 20.0028 10C20.0028 4.47715 15.5257 0 10.0028 0C4.47994 0 0.00280762 4.47715 0.00280762 10C0.00280762 15.5229 4.47994 20 10.0028 20Z" fill="#F25D00"/>
<path d="M6.24508 7.91607V10.9651C6.24508 11.07 6.33017 11.1551 6.4351 11.1551H9.48408C9.58903 11.1551 9.67408 11.07 9.67408 10.9651V7.91607C9.67408 7.81112 9.58903 7.72607 9.48408 7.72607H6.4351C6.33017 7.72607 6.24508 7.81112 6.24508 7.91607Z" fill="white"/>
<path d="M6.24605 12.2007V15.2497C6.24605 15.3547 6.33108 15.4397 6.43604 15.4397H9.48502C9.58997 15.4397 9.67502 15.3547 9.67502 15.2497V12.2007C9.67502 12.0958 9.58997 12.0107 9.48502 12.0107H6.43604C6.33108 12.0107 6.24605 12.0958 6.24605 12.2007Z" fill="white"/>
<path d="M10.5314 12.2012V15.2502C10.5314 15.3552 10.6165 15.4402 10.7214 15.4402H13.7704C13.8753 15.4402 13.9604 15.3552 13.9604 15.2502V12.2012C13.9604 12.0963 13.8753 12.0112 13.7704 12.0112H10.7214C10.6165 12.0112 10.5314 12.0963 10.5314 12.2012Z" fill="white"/>
<path d="M10.5314 7.9151V10.9641C10.5314 11.069 10.6165 11.1541 10.7214 11.1541H13.7704C13.8753 11.1541 13.9604 11.069 13.9604 10.9641V7.9151C13.9604 7.81017 13.8753 7.7251 13.7704 7.7251H10.7214C10.6165 7.7251 10.5314 7.81017 10.5314 7.9151Z" fill="white"/>
<path d="M9.48408 3.43994H6.4351C6.33017 3.43994 6.24508 3.52501 6.24508 3.62994V6.67895C6.24508 6.78388 6.33017 6.86895 6.4351 6.86895H9.48408C9.58903 6.86895 9.67408 6.78388 9.67408 6.67895V3.62994C9.67408 3.52501 9.58903 3.43994 9.48408 3.43994Z" fill="white"/>
</svg>
