<svg width="203" height="203" viewBox="0 0 203 203" fill="none" xmlns="http://www.w3.org/2000/svg">
<rect width="203" height="203" rx="60" fill="#17181A"/>
<path d="M137.707 112.901L166.524 70.3042C166.718 69.9925 166.83 69.6364 166.849 69.2694C166.867 68.9024 166.792 68.5367 166.63 68.2069C166.468 67.8772 166.224 67.5943 165.922 67.385C165.621 67.1757 165.27 67.0469 164.905 67.0109L108.028 60.9641L137.707 112.901Z" fill="#A2A3A5"/>
<path d="M164.803 85.5273L144.459 118.946L165.397 131.472C165.561 131.58 165.751 131.641 165.947 131.649C166.143 131.657 166.338 131.611 166.51 131.517C166.682 131.423 166.825 131.283 166.923 131.113C167.022 130.944 167.073 130.75 167.07 130.554V86.0672C167.105 85.9183 167.111 85.7639 167.087 85.6128C167.063 85.4617 167.009 85.3168 166.929 85.1865C166.849 85.0561 166.744 84.9429 166.62 84.8531C166.496 84.7634 166.355 84.699 166.206 84.6635C166.058 84.6281 165.903 84.6223 165.752 84.6465C165.601 84.6707 165.456 84.7245 165.326 84.8047C165.196 84.8849 165.083 84.99 164.993 85.114C164.903 85.238 164.839 85.3784 164.803 85.5273Z" fill="white"/>
<path d="M161.888 55.9416L108.735 31.9706C108.402 31.8144 108.036 31.7456 107.67 31.7707C107.303 31.7957 106.95 31.9138 106.642 32.1138C106.334 32.3138 106.082 32.589 105.91 32.9135C105.738 33.238 105.651 33.601 105.659 33.9682V51.8925L161.241 57.9932C161.504 58.052 161.78 58.0097 162.014 57.8748C162.248 57.7398 162.423 57.5221 162.505 57.2644C162.586 57.0068 162.568 56.728 162.454 56.4831C162.34 56.2382 162.138 56.045 161.888 55.9416Z" fill="white"/>
<path d="M139.651 126.397L118.066 165.431C117.83 165.844 117.733 166.322 117.79 166.794C117.846 167.266 118.053 167.708 118.38 168.053C118.707 168.398 119.137 168.629 119.605 168.711C120.073 168.793 120.555 168.722 120.98 168.508L162.208 141.514C162.364 141.417 162.493 141.282 162.582 141.121C162.672 140.961 162.719 140.78 162.719 140.596C162.719 140.412 162.672 140.231 162.582 140.071C162.493 139.91 162.364 139.775 162.208 139.678L139.651 126.397Z" fill="white"/>
<path d="M101.291 123.319H71.4496L97.5678 169.318C97.9589 169.954 98.5065 170.48 99.1583 170.844C99.8102 171.209 100.544 171.4 101.291 171.4C102.038 171.4 102.772 171.209 103.424 170.844C104.076 170.48 104.624 169.954 105.015 169.318L131.133 123.319H101.291Z" fill="url(#paint0_linear_1136_8)"/>
<path d="M37.3954 131.472L58.1172 118.892L37.7731 85.5273C37.6364 85.3375 37.4444 85.1947 37.2234 85.1183C37.0024 85.042 36.7631 85.036 36.5385 85.101C36.3139 85.1661 36.1149 85.299 35.9688 85.4817C35.8227 85.6643 35.7367 85.8877 35.7225 86.1212V130.554C35.7196 130.75 35.7702 130.944 35.8689 131.113C35.9676 131.283 36.1107 131.423 36.2827 131.517C36.4547 131.611 36.6492 131.657 36.8453 131.649C37.0413 131.641 37.2315 131.58 37.3954 131.472Z" fill="white"/>
<path d="M62.9229 126.398L40.6361 139.517C40.4799 139.614 40.3511 139.749 40.2617 139.91C40.1723 140.07 40.1254 140.251 40.1254 140.435C40.1254 140.619 40.1723 140.799 40.2617 140.96C40.3511 141.121 40.4799 141.256 40.6361 141.353L81.8639 168.347C82.2887 168.561 82.7709 168.632 83.2392 168.55C83.7076 168.468 84.137 168.237 84.464 167.892C84.791 167.547 84.9981 167.105 85.0546 166.633C85.1112 166.16 85.0141 165.683 84.7779 165.27L63.1927 126.236L62.9229 126.398Z" fill="white"/>
<path d="M41.3317 57.9932L96.9136 51.8925L96.9136 33.9682C96.9209 33.601 96.8345 33.238 96.6625 32.9135C96.4906 32.589 96.2387 32.3138 95.9308 32.1138C95.6229 31.9138 95.2691 31.7957 94.9028 31.7707C94.5366 31.7456 94.17 31.8144 93.8377 31.9706L40.6841 55.9416C40.4346 56.045 40.2329 56.2382 40.1188 56.4831C40.0047 56.728 39.9865 57.0068 40.0678 57.2644C40.1492 57.5221 40.3241 57.7398 40.5581 57.8748C40.792 58.0097 41.0681 58.052 41.3317 57.9932Z" fill="white"/>
<path d="M64.8594 112.901L94.5391 60.9641L37.662 67.0109C37.2964 67.0469 36.9462 67.1757 36.6443 67.385C36.3424 67.5943 36.0989 67.8772 35.9368 68.2069C35.7747 68.5367 35.6994 68.9024 35.718 69.2694C35.7366 69.6364 35.8485 69.9925 36.0431 70.3042L64.8594 112.901Z" fill="url(#paint1_linear_1136_8)"/>
<defs>
<linearGradient id="paint0_linear_1136_8" x1="101.291" y1="171.4" x2="101.291" y2="123.319" gradientUnits="userSpaceOnUse">
<stop stop-color="#AFB0B1"/>
<stop offset="1" stop-color="#9B9C9E"/>
</linearGradient>
<linearGradient id="paint1_linear_1136_8" x1="65.1271" y1="112.901" x2="65.1271" y2="60.9641" gradientUnits="userSpaceOnUse">
<stop stop-color="#AFB0B1"/>
<stop offset="1" stop-color="#9B9C9E"/>
</linearGradient>
</defs>
</svg>
