<svg width="20" height="20" viewBox="0 0 20 20" fill="none" xmlns="http://www.w3.org/2000/svg">
<g clip-path="url(#clip0_27629_455)">
<circle cx="10" cy="10.0008" r="10" fill="black"/>
<path d="M10 3.00079C12.5897 3.00079 14.8507 4.40729 16.0615 6.49786L14.8496 7.20001C13.8811 5.52681 12.0723 4.40118 10 4.40118C6.90722 4.40122 4.40048 6.90796 4.40039 10.0008C4.40039 13.0936 6.90716 15.6013 10 15.6014C12.0702 15.6014 13.8785 14.4779 14.8477 12.8074L16.0596 13.5076C14.8483 15.5962 12.5883 17.0008 10 17.0008C6.13392 17.0008 3 13.8669 3 10.0008C3.00009 6.13479 6.13398 3.00083 10 3.00079ZM10 8.60138C10.5179 8.60138 10.9697 8.88349 11.2119 9.30157H17V10.701H11.2119C10.9697 11.1191 10.5179 11.4012 10 11.4012C9.22686 11.4011 8.60059 10.7739 8.60059 10.0008C8.60077 9.22778 9.22697 8.60149 10 8.60138Z" fill="white"/>
</g>
<defs>
<clipPath id="clip0_27629_455">
<rect width="20" height="20" fill="white" transform="translate(0 0.000793457)"/>
</clipPath>
</defs>
</svg>
