<svg width="20" height="20" viewBox="0 0 20 20" fill="none" xmlns="http://www.w3.org/2000/svg">
<g clip-path="url(#clip0_27633_488)">
<path d="M10 20C15.5228 20 20 15.5228 20 10C20 4.47715 15.5228 0 10 0C4.47715 0 0 4.47715 0 10C0 15.5228 4.47715 20 10 20Z" fill="#0CC9A3"/>
<path fill-rule="evenodd" clip-rule="evenodd" d="M10.3004 2L11.8882 3.58779V6.18726L13.9381 4.1374L16.1835 6.38287L14.1542 8.41221H10.3004C9.4235 8.41221 8.71262 9.12309 8.71262 10C8.71262 10.8769 9.4235 11.5878 10.3004 11.5878H14.1339L16.1836 13.6374L13.9381 15.8829L11.8882 13.833V16.4122L10.3004 18L8.71262 16.4122V13.8538L6.68346 15.8829L4.438 13.6374L6.48767 11.5878H3.8882L2.30042 10L3.8882 8.41221H6.46739L4.43806 6.38287L6.68353 4.1374L8.71262 6.16651V3.58779L10.3004 2Z" fill="black"/>
</g>
<defs>
<clipPath id="clip0_27633_488">
<rect width="20" height="20" fill="white"/>
</clipPath>
</defs>
</svg>
