<svg width="20" height="20" viewBox="0 0 20 20" fill="none" xmlns="http://www.w3.org/2000/svg">
<circle cx="10.0019" cy="10" r="10" fill="#4C2897"/>
<path d="M15.45 10.8802C16.026 10.5681 16.6683 11.0162 16.6697 11.6742C16.6716 12.7392 15.8401 13.8341 14.7185 14.5238C13.454 15.3013 11.5667 15.6243 10.0037 15.6244C8.44047 15.6244 6.55246 15.3014 5.28785 14.5238C4.1663 13.8341 3.33472 12.7396 3.33667 11.6742C3.33805 11.0161 3.98126 10.5679 4.55738 10.8802C4.57016 10.8879 4.92974 11.103 5.27808 11.2943L5.33179 12.2758C5.33538 12.3424 5.36003 12.4051 5.4021 12.4564C5.69725 12.814 7.02078 14.0619 10.0027 14.0619C12.984 14.0618 14.2911 12.8305 14.5974 12.4633C14.6435 12.4079 14.6702 12.3392 14.6746 12.267L14.7283 11.2953C15.0832 11.1004 15.45 10.8802 15.45 10.8802ZM10.0027 4.33337C12.4408 4.33337 13.1022 4.39031 14.0935 4.50427L14.2595 4.53748C14.6352 4.64415 14.9121 4.95467 14.8826 5.35779L14.5173 10.3363C14.4031 10.3694 14.2782 10.4114 14.1384 10.4584C13.406 10.7044 12.2575 11.0902 10.0027 11.0902C7.74794 11.0902 6.59939 10.7044 5.86695 10.4584C5.72721 10.4114 5.60231 10.3694 5.48804 10.3363L5.12281 5.35779C5.08947 4.89706 5.45525 4.54866 5.91285 4.50427C6.89191 4.4092 7.91139 4.33338 10.0027 4.33337Z" fill="#A36EFD"/>
</svg>
