<svg width="20" height="20" viewBox="0 0 20 20" fill="none" xmlns="http://www.w3.org/2000/svg">
<circle cx="10" cy="10" r="10" fill="#00EDBE"/>
<path d="M15.4584 12.5289C15.1541 12.996 14.9764 13.5591 14.9764 14.1653C14.9764 14.8601 15.21 15.4982 15.6 16H5.99C5.77881 16 5.6076 15.8224 5.6076 15.6033V12.9256C5.6076 12.7065 5.77881 12.5289 5.99 12.5289H15.4584ZM13.21 8.26446C13.4212 8.26446 13.5924 8.44207 13.5924 8.66116V11.3388C13.5924 11.5579 13.4212 11.7355 13.21 11.7355H3.60001C3.99 11.2337 4.22364 10.5956 4.22364 9.90083C4.22364 9.29465 4.04596 8.73151 3.74163 8.26446H13.21ZM15.4584 4C15.1541 4.46705 14.9764 5.03019 14.9764 5.63636C14.9764 6.33116 15.21 6.96924 15.6 7.47107H5.99C5.77881 7.47107 5.6076 7.29347 5.6076 7.07438V4.39669C5.6076 4.17761 5.77881 4 5.99 4H15.4584Z" fill="#141BEB"/>
</svg>
