<svg width="20" height="20" viewBox="0 0 20 20" fill="none" xmlns="http://www.w3.org/2000/svg">
<g clip-path="url(#clip0_27611_389)">
<circle cx="10" cy="10" r="10" fill="black"/>
<path d="M11.6434 9.20763C11.4192 9.20763 11.1946 9.12186 11.0236 8.95081C10.681 8.60872 10.681 8.0534 11.0236 7.7113L13.2904 5.44454C13.6325 5.10244 14.1878 5.10244 14.5299 5.44454C14.8724 5.78663 14.8724 6.34195 14.5299 6.68405L12.2631 8.95081C12.0921 9.12186 11.8675 9.20763 11.6434 9.20763Z" fill="#38FF9C"/>
<path d="M10.0002 19C5.03743 19 1 14.9626 1 10.0002C1 5.0379 5.03743 1 10.0002 1C14.963 1 19.0005 5.03743 19.0005 10.0002C19.0005 14.963 14.963 19 10.0002 19ZM10.0002 2.75314C6.0045 2.75314 2.75314 6.00403 2.75314 10.0002C2.75314 13.9964 6.00403 17.2473 10.0002 17.2473C13.9964 17.2473 17.2473 13.9964 17.2473 10.0002C17.2473 6.00403 13.996 2.75314 10.0002 2.75314Z" fill="#38FF9C"/>
<path d="M6.08978 14.7436C5.86566 14.7436 5.64107 14.6578 5.47002 14.4868C5.12792 14.1447 5.12745 13.5893 5.47002 13.2472L7.73678 10.9805C8.07888 10.6384 8.6342 10.6379 8.9763 10.9805C9.3184 11.3231 9.31887 11.8779 8.9763 12.22L6.70954 14.4868C6.53849 14.6578 6.3139 14.7436 6.08978 14.7436Z" fill="#38FF9C"/>
<path d="M9.80404 6.84482C8.23711 6.95711 6.97011 8.21748 6.86397 9.78535C6.85829 9.87016 6.82133 9.95024 6.76068 10.0104L5.48752 11.2855C5.4155 11.358 5.29089 11.3253 5.26483 11.2262C5.16153 10.8315 5.09757 10.408 5.09757 9.98673C5.09757 7.27647 7.30226 5.07178 10.0125 5.07178C10.4541 5.07178 10.8825 5.13053 11.2899 5.23998C11.3724 5.26225 11.3994 5.36555 11.3392 5.4262L10.0234 6.74294C9.96466 6.8017 9.88695 6.83866 9.80404 6.84482Z" fill="#38FF9C"/>
<path d="M13.227 9.95473L14.5438 8.63893C14.604 8.57876 14.7077 8.60576 14.73 8.68821C14.8399 9.0957 14.8982 9.52403 14.8982 9.96563C14.8982 12.6759 12.6935 14.8806 9.98326 14.8806C9.56251 14.8806 9.13891 14.8166 8.74375 14.7133C8.64472 14.6873 8.6125 14.5631 8.68452 14.4906L9.95957 13.2175C10.0197 13.1573 10.0998 13.1203 10.1846 13.1142C11.753 13.008 13.0129 11.741 13.1252 10.1741C13.1313 10.0912 13.1683 10.0135 13.227 9.95473Z" fill="#38FF9C"/>
</g>
<defs>
<clipPath id="clip0_27611_389">
<rect width="20" height="20" rx="10" fill="white"/>
</clipPath>
</defs>
</svg>
