<svg width="20" height="20" viewBox="0 0 20 20" fill="none" xmlns="http://www.w3.org/2000/svg">
<circle cx="10.0004" cy="10" r="10" fill="#627EEA"/>
<path d="M10.0184 8.10245V2.72522C10.0097 2.72522 10.0046 2.72914 9.99861 2.73372C9.99014 2.74021 9.97992 2.74805 9.95525 2.74805C9.78922 3.0795 9.61236 3.39822 9.43244 3.72247C9.36137 3.85056 9.28981 3.97951 9.21826 4.11045C8.88136 4.71043 8.54446 5.33323 8.20757 5.95603C8.02701 6.29353 7.84106 6.63128 7.65519 6.96886C7.47256 7.30058 7.28997 7.63222 7.11255 7.96354C6.94409 8.27528 6.77037 8.58686 6.59665 8.89843C6.42293 9.21002 6.24921 9.5216 6.08075 9.83334C6.04962 9.8899 6.01849 9.94108 5.98737 9.99225C5.95532 10.0449 5.92328 10.0976 5.89124 10.1562H5.91229C5.92531 10.1703 5.93028 10.1669 5.93715 10.1623C5.94139 10.1595 5.94636 10.1562 5.95441 10.1562C6.02811 10.1216 6.10707 10.0812 6.18603 10.0407C6.265 10.0003 6.34396 9.95986 6.41766 9.9253C6.61831 9.8153 6.79983 9.72663 6.98046 9.63839L7.00726 9.6253L7.70215 9.27899L8.27069 9.00181L8.96557 8.65615C9.11311 8.56629 9.27341 8.49025 9.4266 8.41759C9.47019 8.39692 9.51319 8.37652 9.55517 8.35615C9.63119 8.3205 9.70162 8.28484 9.77222 8.24909C9.8385 8.21553 9.90494 8.1819 9.97631 8.14811C9.99737 8.14811 10.0184 8.12528 10.0184 8.10245Z" fill="white"/>
<path d="M9.99987 17.3317C10.0044 17.3334 10.0096 17.3334 10.0184 17.3334V13.7099C10.0184 13.6871 10.0184 13.6636 9.99739 13.6636C9.94475 13.629 9.88684 13.5945 9.82893 13.5599C9.77103 13.5253 9.71312 13.4908 9.66048 13.4562C9.337 13.239 9.00835 13.0275 8.67965 12.8159C8.34505 12.6004 8.0104 12.385 7.68111 12.1636C7.39684 11.979 7.10731 11.7945 6.81777 11.6099C6.52824 11.4253 6.2387 11.2408 5.95443 11.0562C5.9439 11.0562 5.93863 11.0505 5.93337 11.0448C5.92811 11.0391 5.92284 11.0334 5.91231 11.0334C5.91231 11.0448 5.91758 11.0505 5.92284 11.0562C5.92811 11.0619 5.93337 11.0676 5.93337 11.079L6.24923 11.5636C6.50384 11.9753 6.76698 12.3773 7.02779 12.7757C7.17681 13.0033 7.32506 13.2298 7.47054 13.4562L8.73396 15.3945C8.93769 15.7071 9.13649 16.0145 9.33512 16.3215C9.54711 16.6492 9.75892 16.9766 9.97633 17.31C9.9885 17.3235 9.99364 17.3292 9.99987 17.3317Z" fill="white"/>
<path d="M10.0149 2.66687V10.2047H14.1385L10.0149 2.66687Z" fill="#C0CBF6"/>
<path d="M5.89124 10.1169L10.0149 8.10095V12.834L5.89124 10.1169Z" fill="#C0CBF6"/>
<path d="M10.0149 13.7105V17.3041L14.0577 11.1687L10.0149 13.7105Z" fill="#C0CBF6"/>
<path d="M10.0149 12.834V8.10095L14.1385 10.2045L10.0149 12.834Z" fill="#8197EE"/>
</svg>
