<svg width="20" height="20" viewBox="0 0 20 20" fill="none" xmlns="http://www.w3.org/2000/svg">
<circle cx="10" cy="10.0007" r="10" fill="#00EF8B"/>
<path d="M9.99989 19.8C15.4123 19.8 19.7999 15.4124 19.7999 10C19.7999 4.58765 15.4123 0.200043 9.99989 0.200043C4.5875 0.200043 0.19989 4.58765 0.19989 10C0.19989 15.4124 4.5875 19.8 9.99989 19.8Z" fill="#00EF8B"/>
<path d="M14.2744 8.44766H11.509V11.2119H14.2744V8.44766Z" fill="white"/>
<path d="M8.74897 12.2472C8.74897 12.4524 8.68809 12.6529 8.57405 12.8236C8.46 12.9942 8.2979 13.1271 8.10828 13.2057C7.91861 13.2842 7.7099 13.3047 7.50859 13.2647C7.30728 13.2247 7.12235 13.1259 6.97717 12.9807C6.83205 12.8357 6.73319 12.6508 6.69319 12.4496C6.65313 12.2483 6.67365 12.0397 6.75218 11.8501C6.83076 11.6606 6.9638 11.4986 7.13448 11.3845C7.30511 11.2706 7.50583 11.2097 7.71109 11.2097H8.74897V8.44766H7.71109C6.95932 8.44766 6.22446 8.67048 5.59937 9.088C4.97429 9.50552 4.48712 10.0989 4.19943 10.7932C3.91174 11.4874 3.83647 12.2514 3.98313 12.9884C4.1298 13.7255 4.49181 14.4024 5.02336 14.9338C5.55497 15.4652 6.23226 15.827 6.96958 15.9737C7.70689 16.1202 8.4711 16.045 9.16565 15.7575C9.8602 15.4699 10.4538 14.9828 10.8715 14.358C11.2891 13.7332 11.5121 12.9986 11.5121 12.2472V11.2097H8.74897V12.2472Z" fill="white"/>
<path d="M12.5464 7.0667H15.6561V4.3027H12.5464C11.5387 4.30374 10.5725 4.70438 9.85986 5.4167C9.14726 6.12901 8.74646 7.09482 8.74542 8.10217V8.44865H11.5086V8.10217C11.5091 7.8274 11.6187 7.56404 11.8132 7.36988C12.0078 7.17572 12.2715 7.0667 12.5464 7.0667Z" fill="white"/>
<path d="M8.74542 11.2099H11.5088V8.44766H8.74542V11.2099Z" fill="#00EF8B"/>
</svg>
