<svg width="20" height="20" viewBox="0 0 20 20" fill="none" xmlns="http://www.w3.org/2000/svg">
<rect width="20" height="20" rx="10" fill="#030403"/>
<path d="M16.6445 10.7499C16.8022 10.6593 16.999 10.7728 16.999 10.954H17V13.8925C16.9999 13.9766 16.9552 14.0538 16.8818 14.0956L10.1357 17.9686C10.063 18.0104 9.97322 18.0103 9.90039 17.9686L7.5752 16.6444C7.50167 16.6026 7.45612 16.5246 7.45605 16.4403V13.5058C7.45605 13.3253 7.65285 13.2125 7.81055 13.3017L9.89551 14.4892C9.96839 14.531 10.059 14.5303 10.1318 14.4892L16.6445 10.7499ZM5.43359 4.60439C5.50711 4.56193 5.59708 4.56201 5.66992 4.60439L8.22656 6.07216C8.38314 6.16276 8.38395 6.38699 8.22754 6.47841L6.14941 7.68056C6.07656 7.72239 6.03223 7.80036 6.03223 7.88466V15.3632C6.03198 15.5441 5.83531 15.6557 5.67773 15.5653L3.11816 14.0966C3.04482 14.0548 3.00014 13.9776 3 13.8935V6.14736C3.00016 6.0639 3.0454 5.98667 3.11816 5.94423L5.43359 4.60439ZM9.89062 2.03115C9.96332 1.98961 10.0533 1.98963 10.126 2.03115L16.8721 5.9042C16.9449 5.94595 16.9904 6.02285 16.9912 6.10634L17 8.77041C16.9999 8.85452 16.9552 8.93269 16.8818 8.97451L14.3252 10.4423C14.1682 10.5327 13.9714 10.4195 13.9707 10.2392L13.9619 7.84853C13.9618 7.76506 13.9165 7.68813 13.8438 7.64638L7.33105 3.9081C7.17336 3.81751 7.17336 3.59147 7.33105 3.50087L9.89062 2.03115Z" fill="#C3F7BF"/>
</svg>
