<svg width="20" height="20" viewBox="0 0 20 20" fill="none" xmlns="http://www.w3.org/2000/svg">
<g clip-path="url(#clip0_27014_66004)">
<circle cx="10" cy="10.0008" r="10" fill="white"/>
<path d="M2.22113 5.36444C2.45748 5.59351 2.69173 5.82481 2.93109 6.05096C2.98471 6.10159 2.98512 6.13627 2.94672 6.19452C2.44517 6.95329 2.26277 7.78504 2.43011 8.6662C2.65449 9.84778 3.34211 10.7087 4.46527 11.2277C5.12892 11.5342 5.83343 11.6133 6.55707 11.506C7.04333 11.4339 7.49888 11.2696 7.91449 11.0119C7.98324 10.9693 8.02144 10.9743 8.07758 11.0295C8.68823 11.6298 9.30256 12.2265 9.91254 12.8273C9.97985 12.8937 10.015 12.9018 10.0873 12.8312C10.7848 12.1497 11.4876 11.4727 12.185 10.7912C12.2616 10.7163 12.3101 10.7034 12.4106 10.7619C13.0204 11.1173 13.6847 11.2598 14.395 11.2277C15.8053 11.1639 17.0937 10.2098 17.5307 8.8996C17.8616 7.90734 17.7387 6.96595 17.1996 6.0705C17.1644 6.01203 17.1612 5.97547 17.2153 5.92499C17.4118 5.74172 17.6029 5.55276 17.7963 5.36639C17.8143 5.34919 17.8345 5.33404 17.8539 5.31757C19.9204 8.25868 20.2118 12.9901 16.8871 16.4738C13.4437 20.082 7.76054 20.3629 3.96625 17.2658C0.113214 14.1205 -0.344885 8.9566 2.14594 5.29706C2.17506 5.3231 2.199 5.34292 2.22113 5.36444ZM10.3666 0.610535C11.645 0.665994 12.8684 0.949095 14.0375 1.45428C15.4433 2.06166 16.6299 2.95019 17.6371 4.07147C17.6953 4.13619 17.6623 4.1652 17.6176 4.20819C16.3647 5.41445 15.1119 6.6213 13.8598 7.82831C12.6103 9.03273 11.3613 10.2381 10.1118 11.4426C10.0892 11.4644 10.0649 11.485 10.0307 11.5158C7.44539 9.00328 4.8666 6.49768 2.28168 3.98553C2.30031 3.96147 2.31587 3.93799 2.33441 3.91815C3.26678 2.91634 4.34865 2.10644 5.61176 1.53046C6.30108 1.21609 7.01781 0.979879 7.76312 0.824402C8.62159 0.645426 9.48992 0.572371 10.3666 0.610535ZM16.4653 4.13007C12.7673 0.468806 6.75531 0.77972 3.5473 3.98456C3.56584 4.00487 3.58385 4.02663 3.60394 4.04608C5.72327 6.10284 7.8433 8.1589 9.96136 10.217C10.0209 10.2749 10.0544 10.2675 10.1088 10.2141C10.3824 9.9453 10.6595 9.67919 10.936 9.41327C12.7232 7.69357 14.5109 5.97363 16.2993 4.25507C16.3471 4.20913 16.4061 4.17398 16.4653 4.13007ZM6.69965 9.75507C6.1748 10.2203 5.00805 10.3274 4.23578 9.58026C3.46089 8.83071 3.56679 7.7221 4.07562 7.14569C4.95147 8.0166 5.82632 8.8866 6.69965 9.75507ZM16.1137 7.02264C16.4833 7.42331 16.6548 8.44634 16.0151 9.20038C15.3033 10.0389 14.1287 10.0343 13.4858 9.5744C14.3644 8.72127 15.2392 7.87183 16.1137 7.02264Z" fill="#276749"/>
</g>
<defs>
<clipPath id="clip0_27014_66004">
<rect width="20" height="20" fill="white" transform="translate(0 0.000793457)"/>
</clipPath>
</defs>
</svg>
