<?xml version="1.0" encoding="UTF-8"?><svg id="Layer_1" xmlns="http://www.w3.org/2000/svg" viewBox="0 0 204.63 204.63"><defs><style>.cls-1{fill:#fff;}.cls-1,.cls-2{stroke-width:0px;}.cls-2{fill:#010101;}</style></defs><circle class="cls-2" cx="102.31" cy="102.31" r="102.31"/><path class="cls-1" d="M135.35,102.31c8.7-8.28,14.31-19.77,14.88-32.55.05-1.19-.93-2.17-2.12-2.17h-22.3c-1.07,0-2,.79-2.09,1.86-.94,10.98-10.18,19.63-21.4,19.63s-20.46-8.65-21.4-19.63c-.09-1.06-1.03-1.86-2.09-1.86h-22.3c-1.19,0-2.17.98-2.12,2.17.57,12.79,6.18,24.28,14.88,32.55-8.7,8.28-14.31,19.77-14.88,32.55-.05,1.19.93,2.17,2.12,2.17h22.3c1.07,0,2-.79,2.09-1.86.94-10.98,10.18-19.63,21.4-19.63s20.46,8.65,21.4,19.63c.09,1.06,1.03,1.86,2.09,1.86h22.3c1.19,0,2.17-.98,2.12-2.17-.57-12.79-6.18-24.28-14.88-32.55Z"/><circle class="cls-1" cx="67.59" cy="158.72" r="13.24"/><circle class="cls-1" cx="137.04" cy="158.72" r="13.24"/><circle class="cls-1" cx="67.59" cy="45.9" r="13.24"/><circle class="cls-1" cx="137.04" cy="45.9" r="13.24"/></svg>