<?xml version="1.0" encoding="utf-8"?>
<!-- Generator: Adobe Illustrator 15.1.0, SVG Export Plug-In . SVG Version: 6.00 Build 0)  -->
<!DOCTYPE svg PUBLIC "-//W3C//DTD SVG 1.1//EN" "http://www.w3.org/Graphics/SVG/1.1/DTD/svg11.dtd">
<svg version="1.1" id="Layer_1" xmlns="http://www.w3.org/2000/svg" xmlns:xlink="http://www.w3.org/1999/xlink" x="0px" y="0px"
	 width="717.75px" height="793px" viewBox="0 0 717.75 793" enable-background="new 0 0 717.75 793" xml:space="preserve">
<path fill="#272A64" d="M299.166,17.167L60.958,154.696C23.622,176.251,0.624,216.088,0.624,259.199v275.06
	c0,43.109,22.999,82.945,60.334,104.502l238.208,137.527c37.335,21.557,83.335,21.557,120.668,0l238.21-137.527
	c37.334-21.557,60.333-61.393,60.333-104.502v-275.06c0-43.11-22.999-82.947-60.333-104.503L419.834,17.167
	C382.501-4.389,336.501-4.389,299.166,17.167"/>
<path fill="#FFFFFF" d="M308.671,78.007l-200.68,115.862c-31.452,18.161-50.828,51.721-50.828,88.04v231.726
	c0,36.316,19.376,69.877,50.828,88.037l200.68,115.861c31.452,18.158,70.205,18.158,101.659,0l200.678-115.861
	c31.454-18.16,50.83-51.721,50.83-88.037V281.909c0-36.319-19.376-69.878-50.83-88.04L410.33,78.007
	C378.876,59.848,340.123,59.848,308.671,78.007"/>
<path fill="#9496CA" d="M590.882,264.186v143.761l-192.22,119.344c-23.116,13.393-51.622,13.445-74.784,0.123L128.116,412.195
	V264.186l187.11,107.605c27.952,16.072,62.359,16.021,90.258-0.149L590.882,264.186z"/>
<path fill="#DBDBEE" d="M590.882,264.186L405.484,371.642c-27.898,16.17-62.306,16.223-90.257,0.15l-187.11-107.606l189.608-109.471
	c25.851-14.93,57.698-14.93,83.558,0L590.882,264.186z"/>
<path fill="#2D378D" d="M590.882,407.947v123.416L396.886,643.357c-23.132,13.363-51.64,13.363-74.773,0L128.117,531.363V412.195
	l195.762,115.219c23.162,13.322,51.667,13.27,74.784-0.121L590.882,407.947z"/>
</svg>
