<svg width="20" height="20" viewBox="0 0 20 20" fill="none" xmlns="http://www.w3.org/2000/svg">
<rect y="0.000732422" width="20" height="20" rx="10" fill="white"/>
<path d="M10 0.000732422C4.47714 0.000732422 0 4.47788 0 10.0007C0 15.5236 4.47714 20.0007 10 20.0007C15.5229 20.0007 20 15.5236 20 10.0007C20 4.47788 15.5229 0.000732422 10 0.000732422ZM9.56714 4.04145C9.845 3.90573 10.1379 3.9143 10.4064 4.06788C11.34 4.60002 12.2707 5.13645 13.1979 5.68002C13.4964 5.85502 13.6486 6.13645 13.65 6.48073C13.6557 7.6893 13.6536 8.89716 13.65 10.1057C13.65 10.1507 13.6207 10.2157 13.585 10.2372C13.2257 10.4507 12.8621 10.6579 12.4686 10.8843C12.4686 10.805 12.4686 10.7493 12.4686 10.6943C12.4686 9.45145 12.465 8.20859 12.4714 6.96573C12.4729 6.72716 12.39 6.57359 12.1786 6.45287C11.0943 5.83716 10.0164 5.2093 8.93643 4.58573C8.89 4.55859 8.84429 4.53002 8.77357 4.48716C9.05214 4.3293 9.30286 4.17073 9.56714 4.04145ZM9.36857 16.4079C9.30857 16.3764 9.26286 16.355 9.21929 16.33C7.78857 15.505 6.36 14.675 4.925 13.8564C4.52286 13.6264 4.33928 13.3 4.34286 12.8407C4.35071 11.8636 4.34857 10.8872 4.34357 9.91002C4.34143 9.46859 4.52072 9.1493 4.90786 8.9293C5.915 8.35645 6.91714 7.7743 7.91929 7.19216C8.00571 7.14216 8.06928 7.13359 8.15928 7.18788C8.50571 7.39573 8.85715 7.5943 9.225 7.80645C9.155 7.84788 9.10143 7.88073 9.04786 7.91145C7.96357 8.53788 6.88 9.16573 5.79286 9.78788C5.61428 9.89002 5.53214 10.0222 5.53357 10.2286C5.53928 10.9986 5.54 11.7679 5.53357 12.5379C5.53143 12.7507 5.61571 12.885 5.79929 12.99C6.94643 13.6457 8.08928 14.31 9.23571 14.9672C9.33286 15.0229 9.37429 15.0807 9.37143 15.1972C9.36286 15.5914 9.36857 15.9857 9.36857 16.4079ZM9.36857 14.2029C9.26928 14.1464 9.19714 14.1057 9.12572 14.0643C8.21643 13.5393 7.30786 13.0129 6.39643 12.4922C6.29786 12.4357 6.26143 12.3757 6.26286 12.2614C6.26929 11.6693 6.26714 11.0779 6.26429 10.4857C6.26429 10.4057 6.27643 10.35 6.35571 10.3064C6.69143 10.1193 7.02286 9.92359 7.35571 9.73216C7.38 9.71859 7.40571 9.70787 7.45 9.68645C7.45 9.92073 7.45 10.1357 7.45 10.3507C7.45 10.7107 7.45572 11.0707 7.44786 11.4307C7.44357 11.6357 7.52214 11.7743 7.70143 11.8757C8.21643 12.1664 8.725 12.4686 9.24071 12.7579C9.34214 12.815 9.37286 12.8779 9.37072 12.99C9.36429 13.3836 9.36857 13.7779 9.36857 14.2029ZM8.31786 6.43502C8.125 6.32145 7.96 6.32288 7.76714 6.43573C6.68571 7.06716 5.6 7.69073 4.51571 8.31716C4.47 8.34359 4.42215 8.36788 4.34143 8.41216C4.37 8.00002 4.28214 7.61145 4.42214 7.23502C4.49857 7.0293 4.64214 6.8743 4.83214 6.7643C5.73714 6.24145 6.64143 5.71716 7.54786 5.19788C7.87857 5.00788 8.21643 5.01287 8.54714 5.20287C9.57643 5.79573 10.6057 6.39002 11.6329 6.98645C11.6764 7.01216 11.7314 7.06859 11.7321 7.11073C11.7393 7.5343 11.7364 7.95716 11.7364 8.41216C11.3629 8.19645 11.0179 7.99716 10.6729 7.79859C9.88714 7.34502 9.1 6.89502 8.31786 6.43502ZM15.555 13.0886C15.5286 13.4214 15.3329 13.6579 15.045 13.8229C13.9421 14.4572 12.8414 15.0936 11.7393 15.73C11.3936 15.9293 11.0479 16.1293 10.7014 16.3286C10.66 16.3529 10.6164 16.3736 10.56 16.4036C10.5564 16.3464 10.5514 16.3043 10.5514 16.2622C10.5507 15.8972 10.5536 15.5322 10.5493 15.1672C10.5486 15.085 10.5693 15.0336 10.645 14.99C12.2521 14.0657 13.8571 13.1379 15.4629 12.2114C15.4871 12.1972 15.5136 12.1864 15.5593 12.1643C15.56 12.4879 15.5786 12.79 15.555 13.0886ZM15.5629 10.7879C15.56 11.1664 15.3564 11.4322 15.0321 11.6179C13.7757 12.34 12.5207 13.0664 11.2657 13.7907C11.0364 13.9229 10.8064 14.055 10.56 14.1964C10.5564 14.1343 10.5514 14.0929 10.5514 14.0507C10.5507 13.6907 10.555 13.3307 10.5486 12.97C10.5471 12.8679 10.5807 12.8129 10.6693 12.7622C11.8114 12.1072 12.9486 11.4443 14.0921 10.7929C14.2957 10.6772 14.385 10.535 14.3836 10.2964C14.375 9.05359 14.3793 7.81002 14.3793 6.56716C14.3793 6.50787 14.3793 6.44931 14.3793 6.35002C14.6779 6.53002 14.9564 6.67788 15.2121 6.85859C15.445 7.02359 15.5621 7.27359 15.5636 7.56145C15.5679 8.63716 15.5707 9.71216 15.5629 10.7879Z" fill="black"/>
</svg>
