<svg width="20" height="20" viewBox="0 0 20 20" fill="none" xmlns="http://www.w3.org/2000/svg">
<g clip-path="url(#clip0_27014_101255)">
<circle cx="9.99908" cy="10" r="10" fill="#F0EFFE"/>
<path d="M10.0015 0C13.7513 4.9215e-07 17.0174 2.06516 18.729 5.11914C19.5382 6.56301 20.0015 8.2271 20.0015 10C20.0015 13.4939 18.2085 16.5674 15.4937 18.3555C15.2581 18.5106 15.0169 18.6578 14.7681 18.793C13.6345 19.4088 12.3686 19.8117 11.0239 19.9482C10.6877 19.9824 10.3467 20 10.0015 20C4.47877 20 0.00146484 15.5227 0.00146484 10C0.00146531 4.47731 4.47878 0 10.0015 0ZM10.0015 1.26953C5.17993 1.26953 1.271 5.17848 1.271 10C1.271 14.8166 5.17201 18.7226 9.98682 18.7305H10.0161C10.038 18.7304 10.0598 18.7297 10.0815 18.7295C10.8718 18.7136 11.4291 18.1627 11.4292 17.4844C11.4292 16.796 10.8863 16.2861 10.1919 16.2861C9.84262 16.2861 9.68406 16.2859 9.52588 16.2793C9.39446 16.2738 9.26309 16.2634 9.02295 16.2451C8.97764 16.2416 8.92826 16.2384 8.87451 16.2344C8.19215 16.1827 7.61584 15.6785 7.61572 14.9883C7.61572 14.3 8.17813 13.7422 8.87451 13.7422H10.1714C10.8658 13.7422 11.4292 13.1844 11.4292 12.4961C11.4292 11.8057 10.8658 11.248 10.1714 11.248H5.90869C5.21244 11.2478 4.6499 10.6902 4.6499 10.002C4.64995 9.31172 5.21247 8.75216 5.90869 8.75195H14.3638C15.0581 8.75189 15.6206 8.19418 15.6206 7.50586C15.6205 6.81758 15.0581 6.25983 14.3638 6.25977H8.87451C8.17813 6.2597 7.61572 5.70218 7.61572 5.00977C7.6158 4.3215 8.2556 3.81332 8.87451 3.76367C9.49327 3.71409 9.52523 3.71387 10.1714 3.71387C10.8179 3.71387 11.4292 3.20602 11.4292 2.51562C11.4291 1.83742 10.9712 1.28648 10.0796 1.27051C10.0537 1.27028 10.0274 1.26953 10.0015 1.26953Z" fill="#7132F5"/>
</g>
<defs>
<clipPath id="clip0_27014_101255">
<rect width="20" height="20" fill="white" transform="translate(0.00146484)"/>
</clipPath>
</defs>
</svg>
