<svg width="20" height="20" viewBox="0 0 20 20" fill="none" xmlns="http://www.w3.org/2000/svg">
<g clip-path="url(#clip0_27620_433)">
<circle cx="10" cy="10.0008" r="10" fill="#272F3C"/>
<path d="M11.1523 15.7918C11.5795 15.7918 11.9266 16.1372 11.9268 16.5633C11.9268 16.9895 11.5796 17.3348 11.1523 17.3348C10.7252 17.3346 10.3789 16.9894 10.3789 16.5633C10.3791 16.1373 10.7253 15.792 11.1523 15.7918ZM8.12402 15.7586C8.48751 15.7588 8.78223 16.0532 8.78223 16.4158C8.78221 16.7784 8.4875 17.0719 8.12402 17.0721C7.76041 17.0721 7.46486 16.7785 7.46484 16.4158C7.46484 16.0531 7.7604 15.7586 8.12402 15.7586ZM14.6748 14.9871C15.1839 14.9871 15.5967 15.3992 15.5967 15.907C15.5966 16.4148 15.1839 16.826 14.6748 16.826C14.1659 16.8258 13.753 16.4147 13.7529 15.907C13.7529 15.3993 14.1659 14.9873 14.6748 14.9871ZM9.49023 14.6424C9.85376 14.6426 10.1484 14.937 10.1484 15.2996C10.1482 15.662 9.85361 15.9557 9.49023 15.9559C9.12676 15.9559 8.83129 15.6621 8.83105 15.2996C8.83105 14.9369 9.12661 14.6424 9.49023 14.6424ZM12.4199 14.1502C12.8472 14.1502 13.1933 14.4956 13.1934 14.9217C13.1934 15.3479 12.8472 15.6932 12.4199 15.6932C11.9927 15.6931 11.6465 15.3478 11.6465 14.9217C11.6465 14.4956 11.9927 14.1503 12.4199 14.1502ZM6.98828 14.4783C7.30615 14.4785 7.56427 14.7355 7.56445 15.0526C7.56445 15.3698 7.30626 15.6275 6.98828 15.6277C6.67008 15.6277 6.41211 15.3699 6.41211 15.0526C6.41229 14.7353 6.67019 14.4783 6.98828 14.4783ZM8.35449 13.3621C8.67248 13.3623 8.93053 13.6192 8.93066 13.9363C8.93066 14.2536 8.67256 14.5114 8.35449 14.5115C8.03633 14.5115 7.77832 14.2537 7.77832 13.9363C7.77846 13.6191 8.03641 13.3621 8.35449 13.3621ZM10.7744 13.0008C11.1378 13.001 11.4325 13.2946 11.4326 13.657C11.4326 14.0196 11.1378 14.314 10.7744 14.3143C10.4108 14.3143 10.1152 14.0198 10.1152 13.657C10.1154 13.2944 10.4108 13.0008 10.7744 13.0008ZM6.29688 13.2303C6.56947 13.2305 6.79004 13.4515 6.79004 13.7234C6.78989 13.9952 6.56938 14.2155 6.29688 14.2156C6.02426 14.2156 5.80289 13.9953 5.80273 13.7234C5.80273 13.4514 6.02417 13.2303 6.29688 13.2303ZM13.1934 12.7215C13.357 12.7215 13.4902 12.8542 13.4902 13.0174C13.4902 13.1806 13.357 13.3133 13.1934 13.3133C13.0299 13.3131 12.8975 13.1805 12.8975 13.0174C12.8975 12.8543 13.0299 12.7217 13.1934 12.7215ZM7.66309 12.1141C7.93562 12.1142 8.15605 12.3345 8.15625 12.6063C8.15625 12.8783 7.93575 13.0993 7.66309 13.0994C7.39034 13.0994 7.16895 12.8783 7.16895 12.6063C7.16915 12.3344 7.39047 12.1141 7.66309 12.1141ZM14.0664 12.3602C14.2662 12.3604 14.4277 12.5222 14.4277 12.7215C14.4277 12.9209 14.2662 13.0826 14.0664 13.0828C13.8664 13.0828 13.7041 12.921 13.7041 12.7215C13.7041 12.5221 13.8664 12.3602 14.0664 12.3602ZM5.9834 12.0652C6.21068 12.0652 6.39551 12.2487 6.39551 12.4754C6.39543 12.702 6.21063 12.8856 5.9834 12.8856C5.7563 12.8854 5.57235 12.7019 5.57227 12.4754C5.57227 12.2488 5.75625 12.0654 5.9834 12.0652ZM9.62207 11.7361C9.94016 11.7363 10.1982 11.994 10.1982 12.3113C10.1981 12.6285 9.94009 12.8854 9.62207 12.8856C9.30397 12.8856 9.046 12.6286 9.0459 12.3113C9.0459 11.9939 9.30391 11.7361 9.62207 11.7361ZM15.0049 11.7527C15.2318 11.753 15.4158 11.9366 15.416 12.1629C15.416 12.3894 15.2319 12.5738 15.0049 12.574C14.7776 12.574 14.5928 12.3896 14.5928 12.1629C14.593 11.9364 14.7777 11.7527 15.0049 11.7527ZM12.4199 11.7361C12.6199 11.7361 12.7821 11.8981 12.7822 12.0975C12.7822 12.2969 12.6199 12.4588 12.4199 12.4588C12.22 12.4588 12.0576 12.2969 12.0576 12.0975C12.0577 11.8981 12.22 11.7362 12.4199 11.7361ZM13.3584 11.1287C13.5857 11.1287 13.7695 11.3132 13.7695 11.5399C13.7694 11.7664 13.5856 11.95 13.3584 11.95C13.1312 11.95 12.9474 11.7664 12.9473 11.5399C12.9473 11.3132 13.1311 11.1287 13.3584 11.1287ZM7.36621 10.9481C7.5935 10.9481 7.77832 11.1325 7.77832 11.3592C7.77807 11.5856 7.59334 11.7693 7.36621 11.7693C7.13929 11.7691 6.95533 11.5855 6.95508 11.3592C6.95508 11.1326 7.13913 10.9483 7.36621 10.9481ZM15.9268 10.784C16.1993 10.7842 16.4199 11.0053 16.4199 11.2772C16.4197 11.5489 16.1992 11.7691 15.9268 11.7693C15.6542 11.7693 15.4329 11.549 15.4326 11.2772C15.4326 11.0051 15.6541 10.784 15.9268 10.784ZM5.96777 11.0301C6.16756 11.0303 6.32904 11.1921 6.3291 11.3914C6.3291 11.5908 6.16759 11.7525 5.96777 11.7527C5.7678 11.7527 5.60547 11.5909 5.60547 11.3914C5.60553 11.192 5.76784 11.0301 5.96777 11.0301ZM11.3008 10.8494C11.5281 10.8494 11.7119 11.0339 11.7119 11.2606C11.7118 11.4872 11.528 11.6707 11.3008 11.6707C11.0736 11.6707 10.8898 11.4872 10.8896 11.2606C10.8896 11.0339 11.0735 10.8494 11.3008 10.8494ZM8.94629 10.4725C9.21897 10.4725 9.44038 10.6927 9.44043 10.9647C9.44043 11.2367 9.219 11.4568 8.94629 11.4568C8.67376 11.4566 8.45312 11.2365 8.45312 10.9647C8.45317 10.6928 8.67379 10.4727 8.94629 10.4725ZM2.92188 9.38849C3.43099 9.38849 3.84375 9.80061 3.84375 10.3084C3.84356 10.816 3.43088 11.2274 2.92188 11.2274C2.41306 11.2272 2.00019 10.8159 2 10.3084C2 9.80071 2.41294 9.38867 2.92188 9.38849ZM14.2637 10.16C14.5364 10.16 14.7578 10.3811 14.7578 10.6531C14.7576 10.925 14.5362 11.1453 14.2637 11.1453C13.9911 11.1453 13.7697 10.9249 13.7695 10.6531C13.7695 10.3811 13.991 10.16 14.2637 10.16ZM12.2227 9.86505C12.4953 9.86517 12.7158 10.0853 12.7158 10.3572C12.7158 10.6292 12.4952 10.8493 12.2227 10.8494C11.9499 10.8494 11.7285 10.6292 11.7285 10.3572C11.7285 10.0852 11.9499 9.86505 12.2227 9.86505ZM6.14844 10.1932C6.31208 10.1932 6.44434 10.3259 6.44434 10.4891C6.44408 10.6521 6.31193 10.784 6.14844 10.784C5.98496 10.784 5.85279 10.6521 5.85254 10.4891C5.85254 10.3259 5.98481 10.1932 6.14844 10.1932ZM7.33398 9.91388C7.53389 9.914 7.69629 10.0758 7.69629 10.2752C7.69628 10.4746 7.53388 10.6364 7.33398 10.6365C7.13398 10.6365 6.97169 10.4747 6.97168 10.2752C6.97168 10.0757 7.13397 9.91388 7.33398 9.91388ZM16.749 9.43829C17.0672 9.43829 17.3252 9.69515 17.3252 10.0125C17.3252 10.3299 17.0672 10.5867 16.749 10.5867C16.4309 10.5866 16.1729 10.3298 16.1729 10.0125C16.1729 9.69523 16.4309 9.43843 16.749 9.43829ZM8.63379 9.32306C8.86092 9.32306 9.04571 9.50668 9.0459 9.73322C9.0459 9.95992 8.86104 10.1443 8.63379 10.1443C8.40662 10.1442 8.22266 9.95983 8.22266 9.73322C8.22285 9.50676 8.40674 9.3232 8.63379 9.32306ZM15.0869 8.79767C15.4049 8.79782 15.6629 9.05477 15.6631 9.37189C15.6631 9.68916 15.405 9.94693 15.0869 9.94708C14.7687 9.94708 14.5107 9.68925 14.5107 9.37189C14.511 9.05468 14.7688 8.79767 15.0869 8.79767ZM13.0293 8.51837C13.3473 8.51841 13.6052 8.77547 13.6055 9.09259C13.6055 9.40992 13.3475 9.66774 13.0293 9.66779C12.7111 9.66779 12.4531 9.40995 12.4531 9.09259C12.4534 8.77545 12.7113 8.51837 13.0293 8.51837ZM4.89746 8.10822C5.32472 8.10822 5.67084 8.45355 5.6709 8.8797C5.6709 9.30586 5.32476 9.65118 4.89746 9.65118C4.47024 9.65113 4.12402 9.30583 4.12402 8.8797C4.12408 8.45358 4.47028 8.10827 4.89746 8.10822ZM17.3418 7.69708C17.7054 7.69708 18 7.9916 18 8.35431C18 8.71701 17.7054 9.01056 17.3418 9.01056C16.9782 9.01046 16.6836 8.71695 16.6836 8.35431C16.6836 7.99166 16.9782 7.69718 17.3418 7.69708ZM6.80664 7.40216C7.17015 7.40216 7.46559 7.6959 7.46582 8.05841C7.46582 8.42112 7.1703 8.71564 6.80664 8.71564C6.44321 8.71541 6.14844 8.42098 6.14844 8.05841C6.14867 7.69604 6.44336 7.40238 6.80664 7.40216ZM11.2842 7.76349C11.5115 7.76349 11.6953 7.94694 11.6953 8.17365C11.6953 8.4003 11.5114 8.5838 11.2842 8.5838C11.057 8.58377 10.8731 8.40028 10.873 8.17365C10.873 7.94696 11.0569 7.76352 11.2842 7.76349ZM15.6963 7.05743C16.0596 7.05765 16.3543 7.3513 16.3545 7.71368C16.3545 8.07626 16.0598 8.37069 15.6963 8.37091C15.3326 8.37091 15.0371 8.07639 15.0371 7.71368C15.0373 7.35116 15.3328 7.05743 15.6963 7.05743ZM8.55176 7.17169C8.86996 7.17169 9.12793 7.42953 9.12793 7.74689C9.12777 8.06411 8.86986 8.32111 8.55176 8.32111C8.2337 8.3211 7.97575 8.06411 7.97559 7.74689C7.97559 7.42953 8.2336 7.1717 8.55176 7.17169ZM10.0498 7.33673C10.3225 7.33673 10.5439 7.55691 10.5439 7.82892C10.5439 8.10092 10.3225 8.32111 10.0498 8.32111C9.77716 8.32103 9.55572 8.10088 9.55566 7.82892C9.55566 7.55695 9.77712 7.3368 10.0498 7.33673ZM13.6377 6.77814C14.0012 6.77814 14.2966 7.0719 14.2969 7.43439C14.2969 7.79709 14.0014 8.09161 13.6377 8.09161C13.2743 8.09137 12.9795 7.79694 12.9795 7.43439C12.9797 7.07205 13.2744 6.77838 13.6377 6.77814ZM4.12402 6.18732C4.5513 6.18734 4.89746 6.53262 4.89746 6.9588C4.89738 7.38489 4.55125 7.73026 4.12402 7.73029C3.69677 7.73029 3.35066 7.3849 3.35059 6.9588C3.35059 6.5326 3.69673 6.18732 4.12402 6.18732ZM11.4648 6.41681C11.6649 6.41681 11.8271 6.57864 11.8271 6.77814C11.8271 6.97756 11.6648 7.13947 11.4648 7.13947C11.2651 7.13923 11.1036 6.97742 11.1035 6.77814C11.1035 6.57878 11.265 6.41704 11.4648 6.41681ZM6.0332 5.48126C6.39675 5.48132 6.69131 5.77492 6.69141 6.13751C6.69141 6.50018 6.39681 6.79468 6.0332 6.79474C5.66958 6.79474 5.375 6.50022 5.375 6.13751C5.37509 5.77488 5.66964 5.48126 6.0332 5.48126ZM10.5107 5.84259C10.738 5.84263 10.9219 6.02607 10.9219 6.25275C10.9218 6.47936 10.738 6.66286 10.5107 6.6629C10.2835 6.6629 10.0996 6.47939 10.0996 6.25275C10.0996 6.02605 10.2835 5.84259 10.5107 5.84259ZM15.959 4.89044C16.3863 4.89044 16.7334 5.23572 16.7334 5.66193C16.7332 6.08796 16.3862 6.43341 15.959 6.43341C15.532 6.43323 15.1857 6.08785 15.1855 5.66193C15.1855 5.23583 15.5319 4.89062 15.959 4.89044ZM7.77832 5.2674C8.09643 5.2675 8.35449 5.5253 8.35449 5.84259C8.35429 6.15971 8.0963 6.4167 7.77832 6.41681C7.46025 6.41681 7.20235 6.15978 7.20215 5.84259C7.20215 5.52523 7.46012 5.2674 7.77832 5.2674ZM9.27637 5.41486C9.54893 5.41507 9.76953 5.63614 9.76953 5.90802C9.76934 6.17978 9.54881 6.4 9.27637 6.40021C9.00378 6.40021 8.78242 6.17991 8.78223 5.90802C8.78223 5.63601 9.00366 5.41486 9.27637 5.41486ZM13.9014 4.59454C14.3286 4.59454 14.6747 4.9399 14.6748 5.36603C14.6748 5.79219 14.3286 6.13751 13.9014 6.13751C13.4742 6.13737 13.1279 5.79211 13.1279 5.36603C13.128 4.93998 13.4742 4.59468 13.9014 4.59454ZM11.8604 5.36603C12.024 5.36603 12.1562 5.49868 12.1562 5.66193C12.1561 5.82499 12.0239 5.95685 11.8604 5.95685C11.6968 5.95683 11.5646 5.82498 11.5645 5.66193C11.5645 5.49869 11.6967 5.36604 11.8604 5.36603ZM11.1689 4.67657C11.3689 4.67657 11.5312 4.83844 11.5312 5.0379C11.5312 5.23734 11.3689 5.39923 11.1689 5.39923C10.969 5.39918 10.8067 5.23731 10.8066 5.0379C10.8066 4.83847 10.969 4.67663 11.1689 4.67657ZM5.75391 3.74103C6.11733 3.74128 6.41208 4.03475 6.41211 4.39728C6.41211 4.75983 6.11735 5.05425 5.75391 5.0545C5.39025 5.0545 5.09473 4.75999 5.09473 4.39728C5.09476 4.0346 5.39027 3.74103 5.75391 3.74103ZM10.2305 4.10236C10.4578 4.10236 10.6426 4.28581 10.6426 4.51251C10.6425 4.7391 10.4577 4.92267 10.2305 4.92267C10.0034 4.92253 9.81943 4.73901 9.81934 4.51251C9.81934 4.2859 10.0033 4.1025 10.2305 4.10236ZM7.49805 3.51056C7.81625 3.51056 8.07422 3.76839 8.07422 4.08575C8.07402 4.40295 7.81612 4.65997 7.49805 4.65997C7.18007 4.65985 6.92207 4.40287 6.92188 4.08575C6.92188 3.76847 7.17995 3.51068 7.49805 3.51056ZM8.99609 3.67462C9.26884 3.67462 9.49023 3.89577 9.49023 4.16779C9.4901 4.43969 9.26876 4.65997 8.99609 4.65997C8.72348 4.65996 8.50208 4.43968 8.50195 4.16779C8.50195 3.89578 8.7234 3.67463 8.99609 3.67462ZM13.6377 2.00079C14.1468 2.00079 14.5596 2.41194 14.5596 2.91974C14.5596 3.42751 14.1468 3.83966 13.6377 3.83966C13.1288 3.83946 12.7158 3.42738 12.7158 2.91974C12.7158 2.41206 13.1288 2.001 13.6377 2.00079Z" fill="white"/>
</g>
<defs>
<clipPath id="clip0_27620_433">
<rect y="0.000793457" width="20" height="20" rx="10" fill="white"/>
</clipPath>
</defs>
</svg>
