<svg width="20" height="20" viewBox="0 0 20 20" fill="none" xmlns="http://www.w3.org/2000/svg">
<g clip-path="url(#clip0_29364_27305)">
<path d="M10 20.0008C15.5228 20.0008 20 15.5236 20 10.0008C20 4.47795 15.5228 0.000793457 10 0.000793457C4.47715 0.000793457 0 4.47795 0 10.0008C0 15.5236 4.47715 20.0008 10 20.0008Z" fill="#FDF8F1"/>
<path d="M15.1476 16.0748C15.5881 15.6151 15.876 14.9912 15.9581 14.3178C15.9734 14.1928 16.0157 13.8485 16.0753 13.3663C17 5.86621 17 5.78247 17 5.66671C17 5.63821 16.9995 5.60871 16.9985 5.5792C16.9746 4.83877 16.6343 4.13617 16.0649 3.65095C15.4866 3.15817 14.7217 2.92818 13.966 3.01972L5.34825 4.06606C4.26251 4.19795 3.35304 4.98504 3.08496 6.02482C3.02866 6.24297 3 6.46841 3 6.69488C3 6.72363 3.00051 6.75316 3.00152 6.78366C3.03322 7.74678 3.60031 8.61656 4.48139 9.05362C5.47354 9.5184 7.47385 10.0556 8.66227 11.2374C9.85073 12.4191 10.3879 14.4056 10.8553 15.3919L10.8586 15.3982C11.2999 16.2826 12.18 16.8526 13.1559 16.8854C13.1868 16.8864 13.2178 16.8869 13.2485 16.8869C13.971 16.8869 14.6454 16.5984 15.1473 16.0744L15.1476 16.0748Z" fill="url(#paint0_linear_29364_27305)"/>
<path opacity="0.4" d="M11.5241 14.2035C11.5241 15.1505 12.2992 15.9191 13.2482 15.9191C14.1972 15.9191 14.9751 15.1477 14.9751 14.2035C14.9751 13.2593 14.2 12.4879 13.2482 12.4879C12.2966 12.4879 11.5241 13.2593 11.5241 14.2035Z" fill="white"/>
<path opacity="0.4" d="M12.5583 5.68306C12.5583 6.63004 13.3334 7.39871 14.2824 7.39871C15.2314 7.39871 16.0093 6.62726 16.0093 5.68306C16.0093 4.73886 15.2342 3.96741 14.2824 3.96741C13.3308 3.96741 12.5583 4.73886 12.5583 5.68306Z" fill="white"/>
<path opacity="0.4" d="M3.99097 6.7115C3.99097 7.65849 4.76603 8.42716 5.71786 8.42716C6.6697 8.42716 7.44196 7.65571 7.44196 6.7115C7.44196 5.7673 6.66688 4.99585 5.71786 4.99585C4.76882 4.99585 3.99097 5.7673 3.99097 6.7115Z" fill="white"/>
</g>
<defs>
<linearGradient id="paint0_linear_29364_27305" x1="5.95943" y1="12.3149" x2="14.8862" y2="1.83564" gradientUnits="userSpaceOnUse">
<stop stop-color="#9B8564"/>
<stop offset="1" stop-color="#DBD5C7"/>
</linearGradient>
<clipPath id="clip0_29364_27305">
<rect width="20" height="20.0007" fill="white"/>
</clipPath>
</defs>
</svg>
