<svg width="20" height="20" viewBox="0 0 20 20" fill="none" xmlns="http://www.w3.org/2000/svg">
<g clip-path="url(#clip0_27138_226)">
<circle cx="10" cy="10.0008" r="10" fill="#FFA723"/>
<circle cx="10" cy="10.0008" r="10" fill="url(#paint0_linear_27138_226)" fill-opacity="0.5"/>
<path fill-rule="evenodd" clip-rule="evenodd" d="M8.24485 9.5115C8.45133 9.93262 8.13667 10.438 7.62537 10.438C7.33038 10.438 6.94691 10.2134 6.94691 9.78287C6.94691 8.86578 6.66175 8.42594 6.33727 8.30427C6.33727 10.1572 5 10.8404 5 12.946C5 15.0516 6.3176 16.6799 8.17602 17.3818C7.58604 16.8952 7.21239 16.1746 7.21239 15.3698C7.21239 12.9179 10.5261 12.3002 9.3068 9.72674C9.78859 10.335 10.6539 13.2642 9.64111 15.192C10.2606 14.8831 11.2832 13.8163 11.6667 13.2642C11.175 15.8283 11.7552 15.6318 12.2763 15.4446C12.473 15.3698 12.6696 15.2949 12.7876 15.3791C13.0138 15.5195 12.414 16.9045 11.824 17.3912C13.6824 16.6987 15 14.9767 15 12.9553C15 8.46335 9.11014 8.23878 10.7325 3.39117C9.1593 4.07433 6.73058 6.3671 8.24485 9.5115Z" fill="white"/>
</g>
<defs>
<linearGradient id="paint0_linear_27138_226" x1="10" y1="0.000793457" x2="10" y2="20.0008" gradientUnits="userSpaceOnUse">
<stop stop-color="#F3AA45"/>
<stop offset="1" stop-color="#CE4158"/>
</linearGradient>
<clipPath id="clip0_27138_226">
<rect width="20" height="20.0007" fill="white"/>
</clipPath>
</defs>
</svg>
