<svg width="180" height="180" viewBox="0 0 180 180" fill="none" xmlns="http://www.w3.org/2000/svg">
<g clip-path="url(#clip0_2461_38071)">
<g clip-path="url(#clip1_2461_38071)">
<circle cx="90" cy="90" r="84" fill="#DED9D9"/>
<g clip-path="url(#clip2_2461_38071)">
<path d="M107.577 139.941C113.106 139.941 117.57 135.48 117.57 129.976C117.57 124.473 113.106 120.012 107.577 120.012C102.092 120.012 97.6274 124.473 97.6274 129.976C97.6274 135.48 102.092 139.941 107.577 139.941Z" fill="#19191A"/>
<path d="M71.7681 140.237C77.296 140.237 81.7187 135.775 81.7187 130.272C81.7187 124.769 77.296 120.308 71.7681 120.308C66.2827 120.308 61.8179 124.769 61.8179 130.272C61.8179 135.775 66.2827 140.237 71.7681 140.237Z" fill="#19191A"/>
<path d="M49.9504 36.1348H73.6897C78.1568 48.2196 89.8136 82.4599 90.6644 84.3677C90.8771 83.4139 102.619 46.0996 105.937 36.3468H130.612V121.47C127.549 119.774 124.486 118.078 121.168 116.17C118.87 115.004 116.743 113.732 114.403 112.778C114.191 96.2407 113.978 79.8096 113.467 62.6366C110.149 72.4953 98.7047 107.266 97.7687 108.22H82.496C82.496 108.22 67.6482 66.0287 66.9249 64.1207C66.7124 80.3397 66.4996 96.5587 65.9466 113.308C56.8424 117.972 51.4396 120.622 49.738 121.258V36.1348H49.9504Z" fill="#19191A"/>
<path d="M90.0213 14.3109C131.671 14.3109 165.706 48.2331 165.706 89.9998C165.706 131.767 131.799 165.689 90.0213 165.689C48.2439 165.689 14.337 131.767 14.337 89.9998C14.337 48.2331 48.2439 14.3109 90.0213 14.3109ZM90.0213 0C40.2885 0 0 40.2828 0 89.9998C0 139.717 40.2885 180 90.0213 180C139.712 180 180 139.717 180 89.9998C180 40.2828 139.712 0 90.0213 0Z" fill="#19191A"/>
</g>
</g>
</g>
<defs>
<clipPath id="clip0_2461_38071">
<rect width="180" height="180" fill="white"/>
</clipPath>
<clipPath id="clip1_2461_38071">
<rect width="180" height="180" fill="white"/>
</clipPath>
<clipPath id="clip2_2461_38071">
<rect width="180" height="180" fill="white"/>
</clipPath>
</defs>
</svg>
