<svg width="20" height="20" viewBox="0 0 20 20" fill="none" xmlns="http://www.w3.org/2000/svg">
<g clip-path="url(#clip0_27633_470)">
<path d="M10 20.0008C15.5228 20.0008 20 15.5236 20 10.0008C20 4.47795 15.5228 0.000793457 10 0.000793457C4.47715 0.000793457 0 4.47795 0 10.0008C0 15.5236 4.47715 20.0008 10 20.0008Z" fill="#2C242A"/>
<path d="M3.05742 14.4308C1.44754 10.2093 1.48509 5.23112 4.50961 4.25004C6.13901 3.72083 8.57334 3.50247 12.1535 9.41778C12.3472 9.79839 12.3337 10.1062 12.1265 10.2487C11.7976 10.4762 11.4387 10.2412 11.1819 9.86511C7.58069 4.56999 6.11649 5.40398 5.7891 5.53742C4.21527 6.18339 5.38962 10.6233 6.66613 13.3421C7.16772 14.4111 6.90039 15.4332 5.86869 15.8441C4.45104 16.4082 3.39832 15.3194 3.05892 14.4293L3.05742 14.4308Z" fill="#FF00AA"/>
<path d="M16.9425 5.5723C18.5523 9.79383 18.5148 14.772 15.4918 15.7531C13.8624 16.2823 11.4281 16.5007 7.84789 10.5854C7.65415 10.2048 7.66767 9.89695 7.87492 9.75442C8.20379 9.52695 8.56272 9.76199 8.81952 10.138C12.4207 15.4316 13.8849 14.5976 14.2123 14.4627C15.7861 13.8167 14.6118 9.37685 13.3353 6.65802C12.8337 5.58898 13.101 4.56696 14.1327 4.15602C15.5504 3.59194 16.6031 4.68068 16.9425 5.57079V5.5723Z" fill="#FF00AA"/>
</g>
<defs>
<clipPath id="clip0_27633_470">
<rect width="20" height="20" fill="white" transform="translate(0 0.000793457)"/>
</clipPath>
</defs>
</svg>
