<svg width="20" height="20" viewBox="0 0 20 20" fill="none" xmlns="http://www.w3.org/2000/svg">
<mask id="mask0_27021_9764" style="mask-type:alpha" maskUnits="userSpaceOnUse" x="0" y="0" width="21" height="20">
<rect x="0.00323486" width="20" height="20" fill="white"/>
</mask>
<g mask="url(#mask0_27021_9764)">
<circle cx="10.0028" cy="10" r="10" fill="white"/>
<path d="M10.0033 0C4.48046 0 0.0032959 4.47716 0.0032959 10C0.0032959 15.5229 4.48046 20 10.0033 20C15.5261 20 20.0033 15.5228 20.0033 10C20.0033 4.47713 15.5261 0 10.0033 0ZM10.0033 15.0916V19.2674C6.03817 19.2674 2.82381 16.053 2.82381 12.0879C2.82381 8.1228 6.03817 4.90843 10.0033 4.90843V0.732601C13.9684 0.732601 17.1828 3.94696 17.1828 7.91209C17.1828 11.8772 13.9684 15.0916 10.0033 15.0916ZM13.4465 9.96797V10.032C11.9288 10.7884 10.7917 11.9255 10.0353 13.4432H9.97132C9.21489 11.9255 8.07779 10.7884 6.56007 10.032V9.96797C8.07779 9.21156 9.21489 8.07447 9.97132 6.55678H10.0353C10.7917 8.07447 11.9288 9.21156 13.4465 9.96797Z" fill="#FF0420"/>
</g>
</svg>
