<svg width="20" height="20" viewBox="0 0 20 20" fill="none" xmlns="http://www.w3.org/2000/svg">
<path d="M10.0009 20C15.5238 20 20.0009 15.5228 20.0009 10C20.0009 4.47715 15.5238 0 10.0009 0C4.47807 0 0.000915527 4.47715 0.000915527 10C0.000915527 15.5228 4.47807 20 10.0009 20Z" fill="#FF0420"/>
<path d="M8.00867 7.25391C8.39394 7.25391 8.73956 7.31914 9.0448 7.44922C9.35004 7.5743 9.59038 7.76433 9.7655 8.01953C9.94055 8.26963 10.0282 8.5698 10.0282 8.91992C10.0282 9.025 10.0152 9.15824 9.99011 9.31836C9.9151 9.76344 9.8256 10.1961 9.72058 10.6162C9.54546 11.3017 9.2427 11.815 8.81238 12.1553C8.38206 12.4905 7.80636 12.6582 7.08582 12.6582C6.49043 12.6582 6.0022 12.5175 5.62195 12.2373C5.24692 11.9521 5.05945 11.5467 5.05945 11.0215C5.05946 10.9114 5.07157 10.7762 5.09656 10.6162C5.16162 10.2561 5.25485 9.82353 5.37488 9.31836C5.71508 7.94251 6.5929 7.25406 8.00867 7.25391ZM13.4803 7.3291C14.0356 7.3291 14.4811 7.44382 14.8163 7.67383C15.1566 7.90403 15.327 8.23753 15.327 8.67285C15.327 8.79773 15.3121 8.92766 15.2821 9.0625C15.157 9.63784 14.9045 10.0637 14.5243 10.3389C14.149 10.6141 13.6329 10.752 12.9774 10.752H11.9647L11.619 12.3955C11.6089 12.4503 11.5818 12.4953 11.537 12.5303C11.4921 12.5652 11.4443 12.5829 11.3944 12.583H10.3729C10.3181 12.5829 10.2759 12.5651 10.246 12.5303C10.221 12.4903 10.2136 12.4455 10.2235 12.3955L11.2587 7.5166C11.2687 7.46158 11.2967 7.41687 11.3417 7.38184C11.3867 7.34684 11.4342 7.3291 11.4843 7.3291H13.4803ZM7.91199 8.33496C7.6319 8.33496 7.39138 8.41709 7.19128 8.58203C6.99616 8.74719 6.85543 9.00058 6.77039 9.34082C6.68035 9.67595 6.59085 10.0862 6.50085 10.5713C6.48081 10.6713 6.47058 10.7766 6.47058 10.8867C6.47064 11.347 6.71102 11.5771 7.19128 11.5771C7.4714 11.5771 7.70908 11.4942 7.90417 11.3291C8.10422 11.164 8.2469 10.9114 8.33191 10.5713C8.44694 10.1011 8.53457 9.69096 8.5946 9.34082C8.6146 9.23574 8.62488 9.1277 8.62488 9.01758C8.62485 8.56245 8.387 8.33509 7.91199 8.33496ZM12.1669 9.71582H13.0302C13.2403 9.71582 13.4229 9.65804 13.578 9.54297C13.7381 9.42791 13.8434 9.26296 13.8934 9.04785C13.9084 8.96277 13.9159 8.88731 13.9159 8.82227C13.9158 8.67729 13.873 8.56718 13.788 8.49219C13.7029 8.41231 13.5581 8.37213 13.3534 8.37207H12.452L12.1669 9.71582Z" fill="white"/>
</svg>
