<svg width="20" height="20" viewBox="0 0 20 20" fill="none" xmlns="http://www.w3.org/2000/svg">
<path d="M10 20C15.504 20 20 15.496 20 10C20 4.496 15.496 0 10 0C4.496 0 0 4.504 0 10C0 15.504 4.504 20 10 20Z" fill="#6C00F6"/>
<path d="M12.848 12.442L15.68 10.81C15.832 10.722 15.92 10.562 15.92 10.386V7.122C15.92 6.946 15.824 6.786 15.68 6.698L12.848 5.066C12.696 4.978 12.512 4.978 12.36 5.066L9.528 6.698C9.376 6.786 9.288 6.946 9.288 7.122V12.962L7.304 14.106L5.32 12.962V10.674L7.304 9.53L8.616 10.282V8.746L7.552 8.13C7.48 8.09 7.392 8.066 7.312 8.066C7.224 8.066 7.144 8.09 7.072 8.13L4.24 9.762C4.088 9.85 4 10.01 4 10.186V13.45C4 13.626 4.096 13.786 4.24 13.874L7.072 15.506C7.224 15.594 7.408 15.594 7.56 15.506L10.392 13.874C10.544 13.786 10.632 13.626 10.632 13.45V7.61L10.664 7.586L12.616 6.458L14.6 7.602V9.89L12.616 11.034L11.312 10.282V11.818L12.376 12.434C12.528 12.522 12.712 12.522 12.864 12.434L12.848 12.442Z" fill="white"/>
</svg>
