<svg width="20" height="20" viewBox="0 0 20 20" fill="none" xmlns="http://www.w3.org/2000/svg">
<g clip-path="url(#clip0_27014_66114)">
<circle cx="10" cy="10.0008" r="10" fill="#FAFAF5"/>
<mask id="mask0_27014_66114" style="mask-type:alpha" maskUnits="userSpaceOnUse" x="1" y="2" width="17" height="16">
<path d="M17.8 10.0001C17.8 14.4183 14.2183 18.0001 9.79999 18.0001C5.38171 18.0001 1.79999 14.4183 1.79999 10.0001C1.79999 5.58178 5.38171 2.00006 9.79999 2.00006C14.2183 2.00006 17.8 5.58178 17.8 10.0001Z" fill="#211F20"/>
</mask>
<g mask="url(#mask0_27014_66114)">
<path d="M13.5789 5.61041C14.5392 5.05554 15.7673 5.38484 16.322 6.34576C16.8768 7.30685 16.548 8.53663 15.5876 9.09186C14.9298 9.47224 14.1455 9.43793 13.5388 9.0694C12.7814 8.60871 11.9842 9.06853 12.0037 9.95514L12.0027 9.95416C12.0031 9.96924 12.0037 9.9846 12.0037 10.0001C12.0037 10.7637 11.5779 11.4287 10.9509 11.7686C10.1853 12.1958 10.1846 13.1067 10.95 13.5342C10.981 13.5509 11.0119 13.5687 11.0417 13.587C11.7985 14.0441 12.5941 13.583 12.574 12.6973C12.5658 12.3417 12.6519 11.9794 12.8425 11.6485C13.3965 10.6868 14.6236 10.3571 15.5847 10.9112C16.5458 11.4657 16.8761 12.6945 16.322 13.6563C15.7679 14.618 14.5399 14.948 13.5789 14.3936C13.5649 14.3855 13.5518 14.3768 13.5378 14.3682L13.5388 14.3702C12.7809 13.9094 11.9825 14.3706 12.0027 15.2579L12.0017 15.2569C12.0021 15.2715 12.0037 15.2862 12.0037 15.3008C12.0048 16.4108 11.106 17.3114 9.99683 17.3126C8.88763 17.3137 7.98732 16.4148 7.98608 15.3047C7.98608 15.2885 7.98804 15.2712 7.98804 15.2549L7.98706 15.2569C8.00761 14.3719 7.21126 13.9108 6.45483 14.3702L6.45581 14.3692C6.44359 14.3765 6.4319 14.3844 6.41968 14.3917C5.45972 14.9477 4.23055 14.6199 3.67456 13.6592C3.11904 12.6987 3.44634 11.4693 4.40796 10.9131C5.36787 10.3572 6.59704 10.684 7.15308 11.6446C7.34491 11.9766 7.43105 12.3411 7.42261 12.6983C7.40245 13.5814 8.19546 14.0423 8.94995 13.588C8.97974 13.5698 9.00983 13.5519 9.04077 13.5352C9.80722 13.1084 9.80769 12.1962 9.04175 11.7686C8.41455 11.4288 7.9882 10.7648 7.98804 10.001C7.98804 9.98513 7.98999 9.96871 7.98999 9.95319L7.98901 9.95514C8.00917 9.07055 7.21337 8.61053 6.45776 9.0694C5.85218 9.43682 5.07 9.47206 4.41284 9.09381C3.45131 8.54052 3.12071 7.31094 3.67358 6.34869C4.2266 5.38683 5.45441 5.05526 6.41577 5.60846C7.07522 5.98833 7.43812 6.68634 7.42261 7.39752C7.4027 8.28035 8.19558 8.74027 8.94995 8.28522C9.25467 8.09864 9.61304 7.9903 9.99683 7.9903C10.3805 7.99038 10.7387 8.09827 11.0437 8.28522C11.7997 8.74179 12.5946 8.28141 12.575 7.39655C12.5598 6.68689 12.9213 5.99066 13.5789 5.61041ZM10.0017 2.68756C11.1107 2.68774 12.0095 3.58747 12.0095 4.69733C12.0095 5.80723 11.1107 6.70691 10.0017 6.70709C8.89253 6.70709 7.99292 5.80734 7.99292 4.69733C7.99297 3.58736 8.89256 2.68756 10.0017 2.68756Z" fill="#FF9100"/>
</g>
</g>
<defs>
<clipPath id="clip0_27014_66114">
<rect width="20" height="20.0007" fill="white"/>
</clipPath>
</defs>
</svg>
