<svg width="20" height="20" viewBox="0 0 20 20" fill="none" xmlns="http://www.w3.org/2000/svg">
<g clip-path="url(#clip0_27014_66186)">
<circle cx="10" cy="10.0008" r="10" fill="#FCEFDC"/>
<mask id="mask0_27014_66186" style="mask-type:luminance" maskUnits="userSpaceOnUse" x="3" y="2" width="14" height="15">
<path d="M17 2.99127H3V16.9913H17V2.99127Z" fill="white"/>
</mask>
<g mask="url(#mask0_27014_66186)">
<path d="M16.0032 12.4405V4.35054C15.9881 3.67325 15.452 3.13141 14.7724 3.13141H6.29989C4.47249 3.16151 3 4.65157 3 6.48027C3 7.09736 3.16613 7.62415 3.42287 8.09073C3.6343 8.47453 3.97411 8.83575 4.30636 9.11421C4.39698 9.18947 4.35167 9.15933 4.63862 9.33996C5.03884 9.58081 5.49191 9.70118 5.49191 9.70118V14.5401C5.49946 14.7659 5.52966 14.9916 5.58252 15.1948C5.77131 15.8721 6.24703 16.3989 6.88889 16.6548C7.16073 16.7601 7.46278 16.8354 7.78749 16.8354L14.5534 16.858C15.905 16.858 17 15.7668 17 14.4197C17 13.5994 16.6073 12.8845 16.0032 12.4405Z" fill="#FFEEDA"/>
<path d="M16.1797 14.4735C16.1494 15.3425 15.4371 16.0377 14.5658 16.0377L9.89062 16.0226C10.2619 15.5918 10.4892 15.0327 10.4892 14.4282C10.4892 13.4685 9.91338 12.8111 9.91338 12.8111H14.5658C15.4598 12.8111 16.1797 13.5365 16.1797 14.4282V14.4735Z" fill="#EBC28E"/>
<path d="M4.7434 8.40632C4.20755 7.90066 3.83019 7.24405 3.83019 6.45914V6.37613C3.87548 5.04782 4.96982 3.97612 6.29812 3.93084H14.7661C14.9849 3.93838 15.1661 4.09688 15.1661 4.32329V11.4856C15.3623 11.5233 15.4528 11.5459 15.6416 11.6139C15.785 11.6667 15.9963 11.7875 15.9963 11.7875V4.32329C15.9812 3.64404 15.4453 3.10065 14.7661 3.10065H6.29812C4.4717 3.13084 3 4.62518 3 6.45914C3 7.5233 3.48302 8.43651 4.28302 9.07805C4.33585 9.12333 4.38868 9.17616 4.53208 9.17616C4.78113 9.17616 4.95472 8.97988 4.94718 8.76102C4.93963 8.5799 4.86415 8.51198 4.7434 8.40632Z" fill="#190602"/>
<path d="M14.5547 11.9686H7.91315C7.46787 11.9686 7.1056 12.3384 7.1056 12.7837V13.7346C7.1207 14.1724 7.49806 14.5573 7.93579 14.5573H8.42636V13.7346H7.93579V12.7988C7.93579 12.7988 8.05655 12.7988 8.20749 12.7988C9.04521 12.7988 9.66411 13.5762 9.66411 14.4139C9.66411 15.1535 8.99238 16.0969 7.86787 16.0215C6.86409 15.9535 6.32824 15.063 6.32824 14.4139V6.31576C6.32824 5.9535 6.0339 5.65161 5.66409 5.65161H4.99994V6.4818H5.49051V14.4139C5.46787 16.029 6.63768 16.8441 7.86032 16.8441L14.5547 16.8667C15.9056 16.8667 16.9999 15.7724 16.9999 14.4215C16.9999 13.0705 15.9056 11.9686 14.5547 11.9686ZM16.1622 14.4667C16.1321 15.3346 15.4226 16.029 14.5547 16.029L9.89806 16.0139C10.2679 15.5837 10.4943 15.0252 10.4943 14.4215C10.4943 13.463 9.9207 12.8063 9.9207 12.8063H14.5547C15.4452 12.8063 16.1622 13.5309 16.1622 14.4215V14.4667Z" fill="#190602"/>
<path d="M12.8189 6.62519H7.7623V5.80255H12.8189C13.0227 5.80255 13.1812 5.96859 13.1812 6.16482V6.26293C13.1812 6.4667 13.0151 6.62519 12.8189 6.62519Z" fill="#190602"/>
<path d="M12.8189 10.5271H7.7623V9.70447H12.8189C13.0227 9.70447 13.1812 9.8705 13.1812 10.0667V10.1648C13.1812 10.3611 13.0151 10.5271 12.8189 10.5271Z" fill="#190602"/>
<path d="M13.6942 8.57984H7.75461V7.7572H13.6942C13.898 7.7572 14.0565 7.92324 14.0565 8.11947V8.21758C14.064 8.41381 13.898 8.57984 13.6942 8.57984Z" fill="#190602"/>
</g>
</g>
<defs>
<clipPath id="clip0_27014_66186">
<rect y="0.000793457" width="20" height="20" rx="10" fill="white"/>
</clipPath>
</defs>
</svg>
