<svg width="20" height="20" viewBox="0 0 20 20" fill="none" xmlns="http://www.w3.org/2000/svg">
<g clip-path="url(#clip0_27014_66095)">
<path d="M17.7699 12.0165C17.0814 11.787 14.6388 11.1476 12.9666 13.0821C12.6224 11.6886 11.3437 10.7378 9.91745 10.7706C8.49122 10.7214 7.21253 11.6886 6.86827 13.0821C5.21253 11.1804 2.83548 11.7542 2.09778 12.0001C2.13057 12.6231 2.34368 13.2296 2.72073 13.7378C4.85188 16.705 7.86827 17.787 9.91745 17.8198H9.95024H9.96663H10.0158C12.065 17.787 15.0814 16.705 17.1962 13.7378C17.524 13.246 17.7372 12.6394 17.7699 12.0165Z" fill="white"/>
<path d="M9.93357 0C15.4254 0 19.868 4.44262 19.868 9.93443C19.868 15.4262 15.4254 19.8689 9.93357 19.8689C4.44177 19.8689 -0.000854492 15.4262 -0.000854492 9.93443C-0.000854492 4.44262 4.45816 0 9.93357 0Z" fill="#CF1324"/>
<path d="M4.09794 5.16385C4.60614 4.57368 5.24549 4.08188 5.93401 3.72122C4.62254 2.19663 3.57335 1.44253 3.11434 1.26221C2.7209 2.49172 3.17991 4.40975 3.62254 5.75401C3.77008 5.55729 3.93401 5.36057 4.09794 5.16385Z" fill="#EA5D0C"/>
<path d="M15.7367 5.16385C15.8843 5.32778 16.0154 5.49172 16.1466 5.67204C16.5727 4.32778 17.0153 2.45893 16.6219 1.26221C16.163 1.44253 15.1302 2.18024 13.8351 3.68844C14.5564 4.04909 15.2121 4.55729 15.7367 5.16385Z" fill="#EA5D0C"/>
<path d="M15.7371 5.16391C15.1961 4.55735 14.5567 4.04915 13.8354 3.6885C15.1305 2.19669 16.1633 1.4426 16.6223 1.26227C17.0157 2.45899 16.5731 4.32784 16.1469 5.6721C16.0158 5.49178 15.8846 5.32784 15.7371 5.16391ZM4.09773 5.16391C3.93379 5.36063 3.76986 5.55735 3.62232 5.77046C3.17969 4.4262 2.72068 2.49178 3.11412 1.27866C3.57314 1.45899 4.62232 2.21309 5.93379 3.73768C5.24527 4.08194 4.62232 4.57374 4.09773 5.16391ZM17.737 11.2623C17.4911 9.60653 17.1141 8.1803 16.5403 6.99997C17.0157 5.86882 17.3436 4.6721 17.5075 3.45899C17.6223 2.49178 17.5895 1.49178 17.2124 0.672108C17.1305 0.49178 16.9338 0.39342 16.7206 0.426207C16.3928 0.49178 15.8026 0.704893 15.0158 1.34424C14.1961 2.01637 13.4584 2.78686 12.819 3.63932C11.901 3.36063 10.9338 3.21309 9.96658 3.21309C9.95019 3.21309 9.93379 3.21309 9.9174 3.21309C9.901 3.21309 9.88461 3.21309 9.86822 3.21309C8.86822 3.19669 7.88461 3.36063 6.93379 3.65571C6.27805 2.80325 5.54035 2.01637 4.70428 1.32785C3.901 0.688502 3.32723 0.475385 2.99936 0.409812C2.80264 0.377025 2.60592 0.475385 2.50756 0.655713C2.13051 1.47539 2.09773 2.45899 2.21248 3.4262C2.39281 4.6885 2.73707 5.918 3.22887 7.08194C2.68789 8.24587 2.32723 9.63932 2.08133 11.2459C2.04855 11.4918 2.03215 11.7377 2.04855 11.9836C2.78625 11.7377 5.17969 11.1639 6.81904 13.0655C7.1633 11.6721 8.44199 10.7213 9.86822 10.7541C10.3764 10.7377 10.8846 10.8524 11.3436 11.0819C12.1305 11.4918 12.7043 12.2131 12.9174 13.0655C14.5895 11.1311 17.0321 11.7541 17.7206 12C17.7862 11.7705 17.7698 11.5082 17.737 11.2623Z" fill="#F28F3C"/>
<path d="M12.1134 14.9181C12.0315 15.082 11.9823 15.2459 11.9823 15.4263C11.9823 15.4754 11.9331 15.5246 11.8675 15.5246H11.7528L11.4905 16.2131C11.4905 16.2295 11.4577 16.2459 11.4413 16.2459C11.4249 16.2459 11.4249 16.2459 11.4085 16.2295C11.3593 16.164 11.3102 16.1148 11.2774 16.0492C11.261 16.0328 11.261 16.0164 11.261 16V15.2131C10.8184 15.2787 10.3593 15.3115 9.91673 15.2951H9.88394C9.44132 15.2951 8.9823 15.2623 8.53968 15.1967V15.9836C8.53968 16 8.53968 16.0164 8.52328 16.0328C8.4905 16.0984 8.44132 16.164 8.39214 16.2131C8.37574 16.2295 8.34295 16.2295 8.32656 16.2131L8.31017 16.1967L8.04787 15.5082H7.93312C7.88394 15.5082 7.83476 15.4754 7.81836 15.4099C7.81836 15.2295 7.76918 15.0656 7.68722 14.9017C7.67082 14.8689 7.68722 14.8361 7.72 14.8197H7.7364C7.94951 14.8197 8.40853 14.8033 8.50689 14.8197H9.31017C9.39214 14.6886 9.50689 14.6066 9.63804 14.5574V14.0164C8.67082 13.9017 8.55607 13.0164 8.57246 12.4918C8.57246 12.2787 8.75279 12.0984 8.96591 12.0984H10.7692C10.9823 12.0984 11.1626 12.2623 11.1626 12.4918C11.179 13.0164 11.0643 13.8853 10.0971 14.0164V14.5574C10.2282 14.6066 10.3593 14.7049 10.4249 14.8197H11.2282H11.9987C12.0315 14.8197 12.0643 14.8525 12.0643 14.8853C12.1134 14.9017 12.1134 14.9017 12.1134 14.9181Z" fill="#22263F"/>
<path d="M12.1142 14.9181C12.0322 15.0821 11.983 15.246 11.983 15.4263C11.983 15.4755 11.9338 15.5247 11.8683 15.5247H11.7535L11.4912 16.2132C11.4912 16.2296 11.4584 16.246 11.442 16.246C11.4256 16.246 11.4256 16.246 11.4093 16.2296C11.3601 16.164 11.3109 16.1149 11.2781 16.0493C11.2617 16.0329 11.2617 16.0165 11.2617 16.0001V15.2132C10.8191 15.2788 10.3601 15.3116 9.91745 15.3116H9.88466C9.44204 15.3116 8.98302 15.2788 8.5404 15.2132V16.0001C8.5404 16.0165 8.5404 16.0329 8.52401 16.0493C8.49122 16.1149 8.44204 16.1804 8.39286 16.2296C8.37647 16.246 8.34368 16.246 8.32729 16.2296L8.31089 16.2132L8.0486 15.5247H7.93384C7.88466 15.5247 7.83548 15.4919 7.81909 15.4263C7.81909 15.246 7.76991 15.0821 7.68794 14.9181C7.67155 14.8853 7.68794 14.8526 7.72073 14.8362H7.73712C7.95024 14.8362 8.40925 14.8198 8.50761 14.8198H9.31089C9.39286 14.6886 9.50761 14.6067 9.63876 14.5575V14.0165C8.67155 13.9017 8.55679 13.0165 8.57319 12.4919C8.57319 12.2788 8.75352 12.0985 8.96663 12.0985H10.7699C10.983 12.0985 11.1634 12.2624 11.1634 12.4919C11.1797 13.0165 11.065 13.8853 10.0978 14.0165V14.5575C10.2289 14.6067 10.3601 14.705 10.4256 14.8198H11.2289C11.3273 14.8198 11.7863 14.8198 11.9994 14.8362C12.0322 14.8362 12.065 14.869 12.065 14.9017C12.1142 14.9017 12.1142 14.9017 12.1142 14.9181ZM10.8683 15.7378C10.8683 15.8526 10.8027 15.9509 10.6879 15.9837C10.6715 15.9837 10.6552 15.9837 10.6388 15.9837C10.4912 15.9837 10.4912 15.8034 10.3273 15.8034C10.1797 15.8034 10.147 16.246 9.91745 16.2624C9.91745 16.2624 9.91745 16.2624 9.90106 16.2624C9.68794 16.2296 9.65516 15.8034 9.50761 15.8034C9.36007 15.8034 9.34368 15.9837 9.19614 15.9837C9.17975 15.9837 9.16335 15.9837 9.14696 15.9837C9.0322 15.9509 8.96663 15.8526 8.96663 15.7378V15.6067H10.8683V15.7378ZM17.7699 12.0165C17.0814 11.787 14.6388 11.1476 12.9666 13.0821C12.7371 12.2296 12.1634 11.5083 11.3929 11.0985C10.9338 10.8853 10.4256 10.7706 9.91745 10.7706C8.49122 10.7214 7.21253 11.6886 6.86827 13.0821C5.21253 11.1804 2.83548 11.7542 2.09778 12.0001C2.13057 12.6231 2.34368 13.2296 2.72073 13.7378C4.85188 16.705 7.86827 17.787 9.91745 17.8198H9.95024H9.96663H10.0158C10.6715 17.8034 11.3109 17.705 11.9338 17.5247C14.065 16.9018 15.9338 15.5575 17.2126 13.7378C17.524 13.246 17.7372 12.6394 17.7699 12.0165Z" fill="white"/>
<path d="M10.8676 15.6067V15.7378C10.8676 15.8526 10.802 15.951 10.6873 15.9837C10.6709 15.9837 10.6545 15.9837 10.6381 15.9837C10.4905 15.9837 10.4905 15.8034 10.3266 15.8034C10.1627 15.8034 10.1463 16.246 9.91676 16.2624C9.91676 16.2624 9.91676 16.2624 9.90037 16.2624C9.68725 16.2296 9.65447 15.8034 9.50693 15.8034C9.35938 15.8034 9.34299 15.9837 9.19545 15.9837C9.17906 15.9837 9.16266 15.9837 9.14627 15.9837C9.03152 15.951 8.96594 15.8526 8.96594 15.7378V15.6067H10.8676Z" fill="#22263F"/>
<path d="M14.5894 9.14749L14.5075 8.45896C14.5075 8.34421 14.4091 8.24585 14.2944 8.24585C14.2616 8.24585 14.2452 8.24585 14.2124 8.26224C13.4747 8.54093 11.3599 9.50814 11.6058 10.1311C11.8189 10.5573 13.5403 10.0983 14.3927 9.50814C14.5239 9.44257 14.5894 9.29503 14.5894 9.14749Z" fill="#22263F"/>
<path d="M5.29407 9.14749L5.37603 8.45896C5.37603 8.34421 5.4744 8.24585 5.58915 8.24585C5.62194 8.24585 5.63833 8.24585 5.65472 8.26224C6.39243 8.54093 8.50718 9.50814 8.26128 10.1311C8.04817 10.5573 6.32685 10.0983 5.4744 9.50814C5.35964 9.44257 5.29407 9.29503 5.29407 9.14749Z" fill="#22263F"/>
<path d="M8.13029 8.04927C7.70407 8.01649 6.83521 7.93452 6.55652 7.75419C6.19587 7.52468 6.34341 6.4755 7.65489 6.62304C8.65489 6.7378 8.78603 7.42632 8.58931 7.81976C8.49095 7.9837 8.31062 8.06567 8.13029 8.04927Z" fill="white"/>
<path d="M11.7533 8.04927C12.1795 8.01649 13.0484 7.93452 13.3271 7.75419C13.6877 7.52468 13.5402 6.4755 12.2287 6.62304C11.2287 6.7378 11.0976 7.42632 11.2943 7.81976C11.3763 7.9837 11.573 8.06567 11.7533 8.04927Z" fill="white"/>
</g>
<defs>
<clipPath id="clip0_27014_66095">
<rect width="20.0005" height="20" fill="white" transform="translate(0.000976562)"/>
</clipPath>
</defs>
</svg>
