<svg width="20" height="20" viewBox="0 0 20 20" fill="none" xmlns="http://www.w3.org/2000/svg">
<g clip-path="url(#clip0_27620_235)">
<circle cx="10" cy="10" r="10" fill="#00E0CA"/>
<path d="M13.3808 6.40642C15.5809 8.87624 15.5325 12.8274 13.2724 15.2316C11.012 17.6359 7.39552 17.5823 5.19523 15.1125L6.62492 13.592C8.05277 15.1851 10.393 15.2168 11.8564 13.6603C13.3197 12.1038 13.3535 9.54706 11.9345 7.94451L13.3808 6.40642ZM6.72746 4.76873C8.98784 2.36463 12.6043 2.41803 14.8046 4.88787L13.3739 6.40935C11.9461 4.81621 9.60678 4.7845 8.14348 6.34099C6.68043 7.89745 6.64651 10.4534 8.06535 12.0558L6.61906 13.5949C4.41875 11.125 4.46712 7.17302 6.72746 4.76873Z" fill="#00121F"/>
</g>
<defs>
<clipPath id="clip0_27620_235">
<rect width="20" height="20" fill="white"/>
</clipPath>
</defs>
</svg>
