<svg width="20" height="20" viewBox="0 0 20 20" fill="none" xmlns="http://www.w3.org/2000/svg">
<circle cx="10" cy="10.0008" r="10" fill="#EBF5F6"/>
<g clip-path="url(#clip0_27155_216)">
<mask id="mask0_27155_216" style="mask-type:luminance" maskUnits="userSpaceOnUse" x="3" y="3" width="14" height="15">
<path d="M17 3.20074H3V17.2007H17V3.20074Z" fill="white"/>
</mask>
<g mask="url(#mask0_27155_216)">
<path d="M14.6604 4.67869L15.6984 4.42651V5.70251L14.6604 4.67869Z" fill="#38999B"/>
<path d="M14.6604 4.67869L15.6984 4.42651V5.70251L14.6604 4.67869Z" fill="#38999B"/>
<path d="M15.6289 4.51372V5.53708L14.7965 4.71611L15.6289 4.51372ZM15.7679 4.33875L14.5241 4.64118L15.7679 5.86785V4.33875Z" fill="black"/>
<path d="M13.4616 13.2014L13.3995 13.2233L10.0049 9.87548V9.7923L13.4616 13.2014Z" fill="#38999B"/>
<path d="M10.0049 9.7923V9.87548L13.3995 13.2233L13.4616 13.2014L10.0049 9.7923Z" fill="black"/>
<path d="M4.43467 12.3337V4.70551L9.77288 5.9212V14.1108L4.43467 12.3337Z" fill="#183859"/>
<path d="M4.66635 4.99248L9.54134 6.1031V13.7925L4.66635 12.1697V4.99248ZM4.20312 4.41821V12.4977L10.0046 14.4289V5.7399L4.20312 4.41821Z" fill="black"/>
<path d="M4.20312 4.41821V12.4977L10.0046 14.4289V5.7399L4.20312 4.41821Z" stroke="white" stroke-width="0.109375" stroke-linecap="round" stroke-linejoin="round"/>
<path d="M4.20312 12.4978V4.41827L9.99349 3.20074" stroke="white" stroke-width="0.109375" stroke-linecap="round" stroke-linejoin="round"/>
<path d="M4.20312 4.41821V12.4977L10.0046 14.4289V5.7399L4.20312 4.41821Z" stroke="white" stroke-width="0.109375" stroke-linecap="round" stroke-linejoin="round"/>
<path d="M15.7773 13.7975L10.0143 15.8442L4.21236 13.9135L5.91379 13.3909L9.9953 14.7491L14.0643 13.3036L15.7773 13.7975Z" fill="#878781"/>
<path d="M15.7968 15.1535L10.0333 17.2007L4.23185 15.2696L5.93282 14.7469L10.0143 16.1057L14.0833 14.6602L15.7968 15.1535Z" fill="#BBBBB8"/>
<path d="M13.3468 4.998L14.5025 4.71704L15.6985 5.89619V7.31746L13.3468 4.998Z" fill="#38999B"/>
<path d="M14.4811 4.79279L15.6285 5.92443V7.15154L13.4824 5.03492L14.4807 4.79234M14.5242 4.64111L13.2105 4.96046L15.768 7.48276V5.86778L14.5242 4.64111Z" fill="black"/>
<path d="M12.0327 5.31747L13.1889 5.0365L15.6987 7.51175V8.93302L12.0327 5.31747Z" fill="#38999B"/>
<path d="M13.1676 5.11225L15.6287 7.53952V8.76711L12.1684 5.35438L13.1671 5.11179M13.2106 4.96057L11.8965 5.27991L15.7681 9.0983V7.48287L13.2106 4.96057Z" fill="black"/>
<path d="M10.7185 5.63674L11.8747 5.35577L15.6986 9.12668V10.5484L10.7185 5.63674Z" fill="#38999B"/>
<path d="M11.8533 5.43158L15.6291 9.15542V10.383L10.8546 5.67418L11.8533 5.43158ZM11.8964 5.27991L10.5822 5.59925L15.7681 10.7137V9.09833L11.8964 5.27991Z" fill="black"/>
<path d="M10.0745 6.61663V5.79338L10.5604 5.67505L15.6985 10.7421V12.1633L10.0745 6.61663Z" fill="#38999B"/>
<path d="M10.539 5.75086L15.6285 10.7708V11.9979L10.1434 6.58828V5.8468L10.539 5.75086ZM10.5821 5.59918L10.0049 5.73943V6.64493L15.7679 12.3287V10.7137L10.5821 5.59918Z" fill="black"/>
<path d="M10.0745 8.23162V6.81079L15.6809 12.3402L14.6215 12.7166L10.0745 8.23162Z" fill="#38999B"/>
<path d="M10.1439 6.97624L15.5544 12.3123L14.6395 12.6376L10.1439 8.20381V6.97669M10.0049 6.64502V8.26001L14.6039 12.7957L15.7679 12.3818V12.3288L10.0049 6.64502Z" fill="black"/>
<path d="M10.0745 9.76387V8.42529L14.477 12.7677L13.4792 13.1222L10.0745 9.76387Z" fill="#38999B"/>
<path d="M10.1439 8.59123L14.3509 12.7404L13.4976 13.0433L10.1444 9.7361V8.59169M10.0049 8.26001V9.79231L13.4616 13.2014L14.6039 12.7957L10.0049 8.26001Z" fill="black"/>
<path d="M10.0745 13.0775V11.6558L12.0687 13.623L11.0088 13.9994L10.0745 13.0775Z" fill="#38999B"/>
<path d="M10.1439 11.8216L11.9426 13.5956L11.0272 13.9208L10.1439 13.0496V11.822M10.0049 11.4904V13.1058L10.9912 14.0784L11.0532 14.0565L12.1955 13.6508L10.0049 11.4904Z" fill="black"/>
<path d="M10.0745 11.4622V10.0414L13.2726 13.1955L12.2132 13.572L10.0745 11.4622Z" fill="#38999B"/>
<path d="M10.1439 10.2066L13.1466 13.1679L12.2317 13.4927L10.1439 11.4337V10.2066ZM10.0049 9.87537V11.4903L12.1955 13.6508L12.2576 13.6289L13.3995 13.2232L10.0049 9.87537Z" fill="black"/>
<path d="M10.0745 13.2715L10.8643 14.0505L10.0745 14.3314V13.2715Z" fill="#38999B"/>
<path d="M10.0745 13.2715L10.8643 14.0505L10.0745 14.3314V13.2715Z" fill="#38999B"/>
<path d="M10.1439 13.4371L10.7382 14.0232L10.1439 14.2343V13.4371ZM10.0049 13.1058V14.4289L10.9912 14.0785L10.0049 13.1058Z" fill="black"/>
<path d="M5.27119 4.42741L9.99475 3.4342L14.7039 4.36208L10.0026 5.50514L5.27119 4.42741Z" fill="#F7C78D"/>
<path d="M9.99623 3.6672L13.6404 4.38537L10.0014 5.26985L6.34 4.43609L9.99623 3.6672ZM9.99349 3.20074L4.20312 4.41827L10.0046 5.73995L15.7676 4.33923L9.99349 3.20074Z" fill="black"/>
<path d="M15.7681 4.33878L10.0046 5.73995L4.20312 4.41827L9.99349 3.20074L15.7681 4.33878Z" stroke="white" stroke-width="0.109375" stroke-linecap="round" stroke-linejoin="round"/>
<path d="M10.0046 5.73992V14.4289L15.7681 12.3817V4.33875L10.0046 5.73992Z" stroke="white" stroke-width="0.109375" stroke-linecap="round" stroke-linejoin="round"/>
<path d="M15.3048 4.92215V12.061L10.4682 13.7788V6.09764L15.3048 4.92215ZM15.7681 4.33875L10.005 5.73947V14.4289L15.7681 12.3817V4.33875Z" fill="black"/>
<path d="M15.7681 4.33878L10.0046 5.73995L4.20312 4.41827L9.99349 3.20074L15.7681 4.33878Z" stroke="white" stroke-width="0.109375" stroke-linecap="round" stroke-linejoin="round"/>
<path d="M10.0046 5.73992V14.4289L15.7681 12.3817V4.33875L10.0046 5.73992Z" stroke="white" stroke-width="0.109375" stroke-linecap="round" stroke-linejoin="round"/>
</g>
</g>
<defs>
<clipPath id="clip0_27155_216">
<rect width="14" height="14" fill="white" transform="translate(3 3.20074)"/>
</clipPath>
</defs>
</svg>
