<svg width="20" height="20" viewBox="0 0 20 20" fill="none" xmlns="http://www.w3.org/2000/svg">
<g clip-path="url(#clip0_27289_43885)">
<circle cx="10" cy="10" r="10" fill="#E9F6FF"/>
<path d="M14.2103 11.8291C14.2103 14.1619 12.3392 15.5556 10.0305 15.5556C7.72175 15.5556 6.11471 14.1771 5.81292 12.4199H7.94055C8.17444 13.0864 8.93646 13.5712 10.0305 13.5712C11.2452 13.5712 12.1204 12.9577 12.1204 11.867C12.1204 10.7764 11.2678 10.2159 10.0229 10.2159V11.7534C7.67648 11.7534 5.88082 10.4204 5.88082 8.1936C5.88082 5.96684 7.60857 4.44446 10.038 4.44446C12.3392 4.44446 13.9236 5.81536 14.082 7.50437H12.0298C11.8638 6.89844 11.1924 6.43643 10.0833 6.43643C8.73275 6.43643 7.98582 7.06507 7.98582 8.13301C7.98582 9.20096 8.84593 9.71599 10.0229 9.71599V8.10272C12.573 8.10272 14.2103 9.63267 14.2103 11.8291Z" fill="black"/>
</g>
<defs>
<clipPath id="clip0_27289_43885">
<rect width="20" height="20" fill="white"/>
</clipPath>
</defs>
</svg>
