<svg width="24" height="24" viewBox="0 0 24 24" fill="none" xmlns="http://www.w3.org/2000/svg">
<path d="M0 1.5C0 0.671573 0.671573 0 1.5 0H22.5C23.3284 0 24 0.671573 24 1.5V22.5C24 23.3284 23.3284 24 22.5 24H1.5C0.671573 24 0 23.3284 0 22.5V1.5Z" fill="white"/>
<path fill-rule="evenodd" clip-rule="evenodd" d="M8.81928 8.73259C9.52788 8.01777 10.2379 7.30152 10.9508 6.58245H10.9514C10.8936 6.52663 10.8365 6.47164 10.7799 6.41716L10.7797 6.417C10.6494 6.29165 10.522 6.16898 10.3958 6.04507C10.0688 5.7246 9.67733 5.55523 9.22005 5.54284C8.80903 5.53178 8.44231 5.63078 8.14005 5.93628C7.89861 6.18014 7.65713 6.42396 7.41559 6.6677L7.73112 7.47499L6.86309 7.22515C5.64965 8.44898 4.43472 9.67128 3.21624 10.8907C2.98435 11.1226 2.87558 11.3831 2.88014 11.7049C2.88535 12.0801 2.88338 12.4553 2.88079 12.8305C2.87882 13.1302 2.98044 13.381 3.1967 13.5907C3.35455 13.7423 3.50822 13.8979 3.66185 14.0535L3.66187 14.0535C3.75105 14.1438 3.84021 14.234 3.93017 14.3235C4.31851 14.7106 4.70697 15.0975 5.09541 15.4845L5.09606 15.4851L5.09714 15.4862C5.75265 16.1391 6.40814 16.7921 7.06306 17.4456L8.12268 17.035L7.80372 18.1853C7.91193 18.2935 8.02015 18.4017 8.12834 18.5099C8.34264 18.7249 8.59082 18.8246 8.89046 18.8226L8.89125 18.8226H8.89135H8.89147C9.48259 18.818 10.0731 18.8135 10.6635 18.82C11.0068 18.8239 11.2817 18.7047 11.5227 18.4578C12.3875 17.5715 13.256 16.6892 14.1245 15.8069L14.1246 15.8068L14.1251 15.8064L14.1255 15.8059C14.4649 15.461 14.8044 15.1162 15.1437 14.771C15.2758 14.6367 15.4068 14.5018 15.5393 14.3654L15.5398 14.365L15.5405 14.3643C15.5985 14.3045 15.6569 14.2445 15.7157 14.1841C15.701 14.1682 15.6872 14.1528 15.6738 14.1377C15.6505 14.1115 15.6283 14.0866 15.6043 14.0629C15.5367 13.9962 15.4684 13.9302 15.4002 13.8642L15.4001 13.8641L15.4 13.8641C15.309 13.7761 15.218 13.6882 15.1288 13.5985C14.8219 13.2898 14.4533 13.1184 14.0188 13.093C13.6058 13.0683 13.2365 13.1712 12.9368 13.4748C12.0073 14.4179 11.0772 15.3592 10.1463 16.3005C10.0613 16.3865 9.97389 16.4698 9.88586 16.5538L9.88584 16.5538C9.84984 16.5882 9.81374 16.6226 9.77765 16.6574C8.76881 15.661 7.75848 14.6634 6.74558 13.6636L6.23275 14.1578L5.93409 12.8626C5.73045 12.6616 5.52669 12.4605 5.32281 12.2593C6.48312 11.0893 7.64066 9.92155 8.80197 8.75006L8.81767 8.73422L8.81928 8.73259Z" fill="url(#paint0_linear_171_20)"/>
<path fill-rule="evenodd" clip-rule="evenodd" d="M16.0588 14.4276L15.9689 14.5185L15.8059 14.6833C14.9095 15.5896 14.0131 16.496 13.1147 17.4044H13.1153C13.1802 17.4707 13.2437 17.5363 13.3065 17.6011L13.3067 17.6013L13.3072 17.6018L13.3072 17.6018L13.3075 17.6021C13.4446 17.7437 13.5782 17.8817 13.7152 18.016C14.168 18.459 14.7112 18.5762 15.3176 18.444C15.5681 18.3894 15.7592 18.2443 15.9375 18.0742L16.2364 16.1477L17.0392 16.9645C18.2954 15.6977 19.5534 14.433 20.8127 13.1691C21.0101 12.971 21.1091 12.7404 21.1091 12.4643C21.1093 12.3123 21.1089 12.1602 21.1085 12.008V12.008V12.0079V12.0077C21.1077 11.7226 21.107 11.4373 21.1104 11.1524C21.1136 10.8508 21.0075 10.6059 20.7912 10.3942C20.3488 9.9606 19.9097 9.52344 19.4707 9.08635C19.2607 8.87726 19.0507 8.6682 18.8403 8.45957C18.6552 8.27587 18.4699 8.09237 18.2845 7.90889L17.0607 8.18086L17.2633 6.89779C16.8069 6.44527 16.3514 5.99191 15.898 5.53615C15.6485 5.28473 15.3737 5.15314 15.018 5.16031C14.4956 5.17073 13.9725 5.16876 13.4495 5.16031C13.0964 5.15508 12.8137 5.2795 12.5649 5.5303C11.4447 6.66276 10.3205 7.79131 9.1964 8.91984L9.19628 8.91996L9.1959 8.92037C8.9462 9.17105 8.6965 9.42173 8.44683 9.67243C8.41801 9.70169 8.38568 9.72744 8.35258 9.75379C8.33631 9.76673 8.31985 9.77986 8.30353 9.79359C8.36509 9.86136 8.42547 9.9269 8.4847 9.99122L8.4848 9.99132L8.48482 9.99134C8.61798 10.1359 8.7453 10.2741 8.86698 10.417C9.34314 10.9765 10.5143 11.0879 11.1208 10.4463C11.2438 10.3162 11.3675 10.1867 11.4916 10.0577L11.6686 8.93666L12.1319 9.39999C12.4705 9.05559 12.8114 8.7133 13.1522 8.37099L13.1524 8.37084C13.4407 8.08126 13.7291 7.79165 14.0162 7.50072C14.0592 7.45742 14.1021 7.41427 14.1437 7.37259L14.1438 7.37244C14.1884 7.32763 14.2314 7.28453 14.2709 7.24474C14.9788 7.94832 15.6855 8.65075 16.3923 9.35321L16.4628 9.42327C17.2263 10.1821 17.9899 10.941 18.755 11.7015C17.8551 12.6114 16.9569 13.5195 16.0588 14.4276Z" fill="url(#paint1_linear_171_20)"/>
<defs>
<linearGradient id="paint0_linear_171_20" x1="2.88" y1="12.1823" x2="15.7157" y2="12.1823" gradientUnits="userSpaceOnUse">
<stop stop-color="#F47469"/>
<stop offset="1" stop-color="#DB5179"/>
</linearGradient>
<linearGradient id="paint1_linear_171_20" x1="8.30353" y1="11.8276" x2="21.1105" y2="11.8276" gradientUnits="userSpaceOnUse">
<stop stop-color="#F47469"/>
<stop offset="1" stop-color="#DB5179"/>
</linearGradient>
</defs>
</svg>
