<svg width="20" height="20" viewBox="0 0 20 20" fill="none" xmlns="http://www.w3.org/2000/svg">
<g clip-path="url(#clip0_27014_66144)">
<mask id="mask0_27014_66144" style="mask-type:alpha" maskUnits="userSpaceOnUse" x="0" y="0" width="20" height="21">
<path d="M20 10.0008C20 15.5236 15.5228 20.0008 10 20.0008C4.47715 20.0008 0 15.5236 0 10.0008C0 4.47795 4.47715 0.000793457 10 0.000793457C15.5228 0.000793457 20 4.47795 20 10.0008Z" fill="#211F20"/>
</mask>
<g mask="url(#mask0_27014_66144)">
<circle cx="9.99719" cy="10.0008" r="10.0017" fill="white"/>
<path d="M18.6461 6.40224C18.1702 5.28573 17.4974 4.28416 16.6276 3.41395C15.7579 2.54372 14.7732 1.87054 13.6573 1.39438C12.4922 0.901806 11.2614 0.655518 9.99775 0.655518C8.71772 0.655518 7.48694 0.901806 6.33819 1.39438C5.22226 1.87054 4.22122 2.54372 3.35146 3.41395C2.4817 4.28416 1.80887 5.28573 1.33296 6.40224C0.840641 7.55159 0.594482 8.78305 0.594482 10.0637C0.594482 11.328 0.840641 12.5594 1.33296 13.7252C1.80887 14.8417 2.4817 15.8433 3.35146 16.7135C4.22122 17.5837 5.22226 18.2569 6.33819 18.7167C7.50333 19.2092 8.73412 19.4555 9.99775 19.4555C11.2614 19.4555 12.4922 19.2092 13.6573 18.7167C14.7732 18.2405 15.7742 17.5673 16.6441 16.6971C17.5138 15.8269 18.1866 14.8253 18.6626 13.7088C19.1549 12.5431 19.401 11.3116 19.401 10.0473C19.401 8.78305 19.1385 7.55159 18.6461 6.40224ZM6.87974 9.17709C7.25718 7.66651 8.63569 6.56641 10.2603 6.56641H16.7917C17.2184 7.371 17.481 8.25759 17.5794 9.17709H6.87974ZM17.5794 10.9503C17.481 11.8698 17.202 12.7565 16.7917 13.561H10.2603C8.63569 13.561 7.27357 12.4445 6.87974 10.9503H17.5794ZM4.59866 4.6618C6.0428 3.21692 7.96286 2.42879 9.99775 2.42879C12.0326 2.42879 13.9527 3.21692 15.3968 4.6618C15.4461 4.71107 15.4789 4.7439 15.5281 4.79316H10.2603C8.849 4.79316 7.53618 5.335 6.5351 6.33657C5.7474 7.12471 5.23868 8.10983 5.07457 9.17709H2.41606C2.61298 7.46952 3.36787 5.89324 4.59866 4.6618ZM9.99775 17.6987C7.96286 17.6987 6.0428 16.9105 4.59866 15.4656C3.36787 14.2342 2.61298 12.6415 2.41606 10.9503H5.07457C5.25509 12.0176 5.76382 13.0028 6.5351 13.7909C7.53618 14.7925 8.849 15.3343 10.2603 15.3343H15.5281C15.4789 15.3836 15.4461 15.4164 15.3968 15.4656C13.9527 16.9105 12.0326 17.6987 9.99775 17.6987Z" fill="black"/>
</g>
</g>
<defs>
<clipPath id="clip0_27014_66144">
<rect width="20" height="20" fill="white" transform="translate(0 0.000793457)"/>
</clipPath>
</defs>
</svg>
