<svg width="96" height="96" viewBox="0 0 96 96" fill="none" xmlns="http://www.w3.org/2000/svg">
<rect width="96" height="96" fill="#FFF533"/>
<circle cx="48" cy="48" r="48" fill="#FFF533"/>
<path d="M56.1521 31.6904L55.734 32.8369L53.2711 39.6062L48.7406 52.0526L45.507 60.9368C45.507 60.9368 45.5024 60.9345 45.5001 60.9345C45.4484 61.0907 45.3944 61.2469 45.3369 61.402C44.4375 63.8568 42.9637 66.0348 41.0775 67.7717C41.0775 67.7717 41.0775 67.7728 41.0764 67.7728C38.1816 70.439 34.3173 72.0644 30.0739 72.0644C28.3359 72.0644 26.6599 71.7922 25.0897 71.2867C23.4527 70.7595 21.9295 69.9806 20.5649 68.9939C20.0399 68.6148 19.5379 68.2059 19.0635 67.7682C19.0646 67.7682 19.0646 67.7671 19.0646 67.7671H19.0658C19.2898 67.7843 19.5184 67.7923 19.747 67.7923C20.1835 67.7923 20.6119 67.7625 21.0324 67.705C24.5279 67.2295 27.4147 64.839 28.6047 61.6226C28.6151 61.5973 28.6243 61.5709 28.6334 61.5445L35.9462 41.4522C36.0323 41.2213 36.1231 40.9916 36.2196 40.7664C36.3953 40.3552 36.5895 39.9543 36.8008 39.5637C39.3269 34.877 44.2813 31.6904 49.9801 31.6904H56.1498H56.1521Z" fill="black"/>
<path d="M81.0237 23.8184L80.601 24.9786L78.1588 31.6905L70.3774 53.0739L67.4137 61.2137L67.3459 61.401C65.068 67.6236 59.0935 72.0645 52.0829 72.0645C50.3208 72.0645 48.6241 71.7842 47.0354 71.2661C45.4226 70.74 43.9224 69.9681 42.575 68.994H42.5738C42.0512 68.6172 41.5526 68.2106 41.0793 67.774C41.2792 67.7867 41.4802 67.7936 41.6836 67.7936C42.1465 67.7936 42.6014 67.7603 43.046 67.6948H43.0471C46.5139 67.1939 49.3708 64.8069 50.5482 61.6054C50.5494 61.6066 50.5505 61.6054 50.5505 61.6054L58.147 40.7332L60.0274 35.5651L60.6707 33.7996L60.7959 33.455C61.0268 32.8473 61.2968 32.258 61.6023 31.6905C64.048 27.1485 68.7715 24.0136 74.2417 23.8184H81.0237Z" fill="black"/>
<path d="M31.2613 39.605L26.7537 51.9905L22.2852 64.2645C21.7177 65.8153 20.5518 67.0766 19.0665 67.7658H19.0642C15.9971 64.9411 14.0202 60.947 13.8375 56.4912C13.8283 56.2672 13.8237 56.0397 13.8237 55.8134C13.8237 53.8732 14.1638 52.0123 14.7875 50.2881C17.0493 44.0333 23.0399 39.5625 30.0746 39.5625C30.4744 39.5625 30.8696 39.5774 31.2613 39.605Z" fill="black"/>
</svg>
