<svg width="20" height="20" viewBox="0 0 20 20" fill="none" xmlns="http://www.w3.org/2000/svg">
<g clip-path="url(#clip0_27014_66086)">
<circle cx="10" cy="10.001" r="10" fill="#F5F5F7"/>
<path d="M6.4942 5.45825H6.23346C5.45243 5.4584 4.83615 6.08836 4.836 6.86938V8.36353C4.836 8.67867 4.76695 8.98009 4.61627 9.25415C4.46557 9.52815 4.26031 9.76155 4.00006 9.9397C4.26037 10.1179 4.46555 10.3512 4.61627 10.6252C4.7533 10.8993 4.83597 11.2007 4.836 11.5159V13.2571C4.8362 14.0793 5.50789 14.7502 6.33014 14.7502V15.4084C5.13784 15.3947 4.17801 14.4357 4.1778 13.2434V11.5159C4.17775 11.187 4.05428 10.8856 3.83502 10.6526C3.61573 10.4196 3.3143 10.2825 2.99908 10.2688L3.01276 9.9397L2.99908 9.6106C3.31432 9.58318 3.61573 9.44613 3.83502 9.21313C4.05427 8.98014 4.1778 8.67873 4.1778 8.36353V6.86938C4.17782 6.59536 4.21858 6.32109 4.32819 6.07446C4.64341 5.30705 5.39752 4.80016 6.23346 4.80005H6.4942V5.45825ZM13.8409 4.80005C14.9783 4.80017 15.8964 5.73201 15.8965 6.86938V8.36353C15.8965 9.02141 16.4037 9.56946 17.0616 9.6106L17.0479 9.9397L17.0616 10.2688C16.4038 10.3099 15.883 10.8581 15.8965 11.5159V13.2434C15.8964 14.4355 14.9236 15.3945 13.7452 15.4084V14.7512C14.5672 14.751 15.2382 14.0792 15.2383 13.2571V11.5159C15.2384 10.8856 15.5536 10.296 16.0743 9.9397C15.5537 9.58331 15.2383 8.99384 15.2383 8.36353V6.86938C15.2383 6.6913 15.1975 6.49957 15.129 6.33521C15.0604 6.17073 14.9506 6.00641 14.8272 5.88306C14.5669 5.60902 14.2108 5.45831 13.8409 5.45825H13.5801V4.80005H13.8409ZM8.70123 10.8303C9.45493 10.1318 10.6194 10.1319 11.3731 10.8303L13.4161 12.7493H12.4424L10.8799 11.2971C10.4002 10.8585 9.67411 10.8585 9.1944 11.2971L7.6319 12.7493H6.65826L8.70123 10.8303ZM9.18073 8.88403C9.66044 9.32263 10.3866 9.32263 10.8663 8.88403L12.4288 7.44556H13.4161L11.3731 9.3645C10.6194 10.0493 9.46863 10.0494 8.70123 9.3645L6.65826 7.44556H7.6319L9.18073 8.88403Z" fill="#211F20"/>
</g>
<defs>
<clipPath id="clip0_27014_66086">
<rect width="20" height="20.001" fill="white"/>
</clipPath>
</defs>
</svg>
